<!-- libraries/icons/icons.svg - GENERATED BY ICON STUDIO -->
<svg xmlns="http://www.w3.org/2000/svg" style="display: none;">

  <symbol id="icon-link" viewBox="0 0 24 24">
    <path fill="none" stroke="currentColor" stroke-width="2" stroke-linecap="round" stroke-linejoin="round" d="M13.213 9.787a3.391 3.391 0 0 0-4.795 0l-3.425 3.426a3.39 3.39 0 0 0 4.795 4.794l.321-.304m-.321-4.49a3.39 3.39 0 0 0 4.795 0l3.424-3.426a3.39 3.39 0 0 0-4.794-4.795l-1.028.961"></path>
  </symbol>
  <symbol id="icon-link-broken" viewBox="0 0 24 24">
    <path fill="none" stroke="currentColor" stroke-width="2" stroke-linecap="round" stroke-linejoin="round" d="M13.2131 9.78732c-.6359-.63557-1.4983-.99259-2.3974-.99259-.89911 0-1.76143.35702-2.39741.99259l-3.4253 3.42528C4.35719 13.8485 4 14.7108 4 15.61c0 .8992.35719 1.7616.99299 2.3974.63598.6356 1.4983.9926 2.39742.9926.89912 0 1.76144-.357 2.39742-.9926l.32157-.3043m-.32157-4.4905c.63587.6358 1.49827.993 2.39747.993.8991 0 1.7615-.3572 2.3974-.993l3.4243-3.42528c.6358-.63585.993-1.49822.993-2.39741 0-.89919-.3572-1.76156-.993-2.39741C17.3712 4.357 16.509 4 15.6101 4c-.899 0-1.7612.357-2.397.9925l-1.0278.96062m7.3873 14.04678-1.7862-1.7862m0 0L16 16.4274m1.7864 1.7863 1.7862-1.7863m-1.7862 1.7863L16 20"></path>
  </symbol>
  <symbol id="icon-settings" viewBox="0 0 24 24">
    <path fill="none" stroke="currentColor" stroke-width="2" stroke-linecap="round" stroke-linejoin="round" d="M21 13v-2a1 1 0 0 0-1-1h-.757l-.707-1.707.535-.536a1 1 0 0 0 0-1.414l-1.414-1.414a1 1 0 0 0-1.414 0l-.536.535L14 4.757V4a1 1 0 0 0-1-1h-2a1 1 0 0 0-1 1v.757l-1.707.707-.536-.535a1 1 0 0 0-1.414 0L4.929 6.343a1 1 0 0 0 0 1.414l.536.536L4.757 10H4a1 1 0 0 0-1 1v2a1 1 0 0 0 1 1h.757l.707 1.707-.535.536a1 1 0 0 0 0 1.414l1.414 1.414a1 1 0 0 0 1.414 0l.536-.535 1.707.707V20a1 1 0 0 0 1 1h2a1 1 0 0 0 1-1v-.757l1.707-.708.536.536a1 1 0 0 0 1.414 0l1.414-1.414a1 1 0 0 0 0-1.414l-.535-.536.707-1.707H20a1 1 0 0 0 1-1Z"></path>
    <path fill="none" stroke="currentColor" stroke-width="2" stroke-linecap="round" stroke-linejoin="round" d="M12 15a3 3 0 1 0 0-6 3 3 0 0 0 0 6Z"></path>
  </symbol>
  <symbol id="icon-edit" viewBox="0 0 24 24"><path fill="none" stroke="currentColor" stroke-width="2" stroke-linecap="round" stroke-linejoin="round" d="m14.304 4.844 2.852 2.852M7 7H4a1 1 0 0 0-1 1v10a1 1 0 0 0 1 1h11a1 1 0 0 0 1-1v-4.5m2.409-9.91a2.017 2.017 0 0 1 0 2.853l-6.844 6.844L8 14l.713-3.565 6.844-6.844a2.015 2.015 0 0 1 2.852 0Z"></path></symbol>
  <symbol id="icon-save" viewBox="0 0 24 24"><path fill="none" stroke="currentColor" stroke-width="2" stroke-linecap="round" stroke-linejoin="round" d="M11 16h2m6.707-9.293-2.414-2.414A1 1 0 0 0 16.586 4H5a1 1 0 0 0-1 1v14a1 1 0 0 0 1 1h14a1 1 0 0 0 1-1V7.414a1 1 0 0 0-.293-.707ZM16 20v-6a1 1 0 0 0-1-1H9a1 1 0 0 0-1 1v6h8ZM9 4h6v3a1 1 0 0 1-1 1h-4a1 1 0 0 1-1-1V4Z"></path></symbol>
  <symbol id="icon-save-alt" viewBox="0 0 24 24"><path fill="none" stroke="currentColor" stroke-width="1.5" stroke-linecap="round" stroke-linejoin="round" fill-rule="evenodd" d="M5 3a2 2 0 0 0-2 2v14a2 2 0 0 0 2 2h14a2 2 0 0 0 2-2V7.414A2 2 0 0 0 20.414 6L18 3.586A2 2 0 0 0 16.586 3H5Zm3 11a1 1 0 0 1 1-1h6a1 1 0 0 1 1 1v6H8v-6Zm1-7V5h6v2a1 1 0 0 1-1 1h-4a1 1 0 0 1-1-1Z" clip-rule="evenodd"></path><path fill="none" stroke="currentColor" stroke-width="1.5" stroke-linecap="round" stroke-linejoin="round" fill-rule="evenodd" d="M14 17h-4v-2h4v2Z" clip-rule="evenodd"></path></symbol>
  <symbol id="icon-adjustments" viewBox="0 0 24 24"><path fill="none" stroke="currentColor" stroke-width="1.5" stroke-linecap="round" stroke-linejoin="round" d="M10.83 5a3.001 3.001 0 0 0-5.66 0H4a1 1 0 1 0 0 2h1.17a3.001 3.001 0 0 0 5.66 0H20a1 1 0 1 0 0-2h-9.17ZM4 11h9.17a3.001 3.001 0 0 1 5.66 0H20a1 1 0 1 1 0 2h-1.17a3.001 3.001 0 0 1-5.66 0H4a1 1 0 1 1 0-2Zm1.17 6H4a1 1 0 1 0 0 2h1.17a3.001 3.001 0 0 0 5.66 0H20a1 1 0 1 0 0-2h-9.17a3.001 3.001 0 0 0-5.66 0Z"></path></symbol>
  <symbol id="icon-adjustments-vert" viewBox="0 0 24 24"><path fill="none" stroke="currentColor" stroke-width="1.5" stroke-linecap="round" stroke-linejoin="round" d="M5 13.17a3.001 3.001 0 0 0 0 5.66V20a1 1 0 1 0 2 0v-1.17a3.001 3.001 0 0 0 0-5.66V4a1 1 0 0 0-2 0v9.17ZM11 20v-9.17a3.001 3.001 0 0 1 0-5.66V4a1 1 0 1 1 2 0v1.17a3.001 3.001 0 0 1 0 5.66V20a1 1 0 1 1-2 0Zm6-1.17V20a1 1 0 1 0 2 0v-1.17a3.001 3.001 0 0 0 0-5.66V4a1 1 0 1 0-2 0v9.17a3.001 3.001 0 0 0 0 5.66Z"></path></symbol>
  <symbol id="icon-annotation" viewBox="0 0 24 24"><path fill="none" stroke="currentColor" stroke-width="2" stroke-linecap="round" stroke-linejoin="round" d="M7.556 8.5h8m-8 3.5H12m7.111-7H4.89a.896.896 0 0 0-.629.256.868.868 0 0 0-.26.619v9.25c0 .232.094.455.26.619A.896.896 0 0 0 4.89 16H9l3 4 3-4h4.111a.896.896 0 0 0 .629-.256.868.868 0 0 0 .26-.619v-9.25a.868.868 0 0 0-.26-.619.896.896 0 0 0-.63-.256Z"></path></symbol>
  <symbol id="icon-badge-check" viewBox="0 0 24 24"><path fill="none" stroke="currentColor" stroke-width="1.5" stroke-linecap="round" stroke-linejoin="round" fill-rule="evenodd" d="M12 2c-.791 0-1.55.314-2.11.874l-.893.893a.985.985 0 0 1-.696.288H7.04A2.984 2.984 0 0 0 4.055 7.04v1.262a.986.986 0 0 1-.288.696l-.893.893a2.984 2.984 0 0 0 0 4.22l.893.893a.985.985 0 0 1 .288.696v1.262a2.984 2.984 0 0 0 2.984 2.984h1.262c.261 0 .512.104.696.288l.893.893a2.984 2.984 0 0 0 4.22 0l.893-.893a.985.985 0 0 1 .696-.288h1.262a2.984 2.984 0 0 0 2.984-2.984V15.7c0-.261.104-.512.288-.696l.893-.893a2.984 2.984 0 0 0 0-4.22l-.893-.893a.985.985 0 0 1-.288-.696V7.04a2.984 2.984 0 0 0-2.984-2.984h-1.262a.985.985 0 0 1-.696-.288l-.893-.893A2.984 2.984 0 0 0 12 2Zm3.683 7.73a1 1 0 1 0-1.414-1.413l-4.253 4.253-1.277-1.277a1 1 0 0 0-1.415 1.414l1.985 1.984a1 1 0 0 0 1.414 0l4.96-4.96Z" clip-rule="evenodd"></path></symbol>
  <symbol id="icon-barcode" viewBox="0 0 24 24"><path fill="none" stroke="currentColor" stroke-width="2" stroke-linecap="round" stroke-linejoin="round" d="M2.9917 4.9834V18.917M9.96265 4.9834V18.917M15.9378 4.9834V18.917m2.9875-13.9336V18.917"></path><path fill="none" stroke="currentColor" stroke-width="2" stroke-linecap="round" stroke-linejoin="round" d="M5.47925 4.4834V19.417m1.9917-14.9336V19.417M21.4129 4.4834V19.417M13.4461 4.4834V19.417"></path></symbol>
  <symbol id="icon-bars" viewBox="0 0 24 24"><path fill="none" stroke="currentColor" stroke-width="2" stroke-linecap="round" stroke-linejoin="round" d="M5 7h14M5 12h14M5 17h14"></path></symbol>
  <symbol id="icon-bell" viewBox="0 0 24 24"><path fill="none" stroke="currentColor" stroke-width="1.5" stroke-linecap="round" stroke-linejoin="round" d="M17.133 12.632v-1.8a5.406 5.406 0 0 0-4.154-5.262.955.955 0 0 0 .021-.106V3.1a1 1 0 0 0-2 0v2.364a.955.955 0 0 0 .021.106 5.406 5.406 0 0 0-4.154 5.262v1.8C6.867 15.018 5 15.614 5 16.807 5 17.4 5 18 5.538 18h12.924C19 18 19 17.4 19 16.807c0-1.193-1.867-1.789-1.867-4.175ZM8.823 19a3.453 3.453 0 0 0 6.354 0H8.823Z"></path></symbol>
  <symbol id="icon-bell-active" viewBox="0 0 24 24"><path fill="none" stroke="currentColor" stroke-width="1.5" stroke-linecap="round" stroke-linejoin="round" d="M11.209 3.816a1 1 0 0 0-1.966.368l.325 1.74a5.338 5.338 0 0 0-2.8 5.762l.276 1.473.055.296c.258 1.374-.228 2.262-.63 2.998-.285.52-.527.964-.437 1.449.11.586.22 1.173.75 1.074l12.7-2.377c.528-.1.418-.685.308-1.27-.103-.564-.636-1.123-1.195-1.711-.606-.636-1.243-1.306-1.404-2.051-.233-1.085-.275-1.387-.303-1.587-.009-.063-.016-.117-.028-.182a5.338 5.338 0 0 0-5.353-4.39l-.298-1.592Z"></path><path fill="none" stroke="currentColor" stroke-width="1.5" stroke-linecap="round" stroke-linejoin="round" fill-rule="evenodd" d="M6.539 4.278a1 1 0 0 1 .07 1.412c-1.115 1.23-1.705 2.605-1.83 4.26a1 1 0 0 1-1.995-.15c.16-2.099.929-3.893 2.342-5.453a1 1 0 0 1 1.413-.069Z" clip-rule="evenodd"></path><path fill="none" stroke="currentColor" stroke-width="1.5" stroke-linecap="round" stroke-linejoin="round" d="M8.95 19.7c.7.8 1.7 1.3 2.8 1.3 1.6 0 2.9-1.1 3.3-2.5l-6.1 1.2Z"></path></symbol>
  <symbol id="icon-bookmark" viewBox="0 0 24 24"><path fill="none" stroke="currentColor" stroke-width="2" stroke-linecap="round" stroke-linejoin="round" d="m17 21-5-4-5 4V3.889a.92.92 0 0 1 .244-.629.808.808 0 0 1 .59-.26h8.333a.81.81 0 0 1 .589.26.92.92 0 0 1 .244.63V21Z"></path></symbol>
  <symbol id="icon-calendar" viewBox="0 0 24 24">
    <path fill="none" stroke="currentColor" stroke-width="2" stroke-linecap="round" stroke-linejoin="round" d="M3 4a2 2 0 0 1 2-2h14a2 2 0 0 1 2 2v14a2 2 0 0 1-2 2H5a2 2 0 0 1-2-2V4zm13-2v4M8 2v4M3 10h18"></path>
  </symbol>
  <symbol id="icon-calendar-edit" viewBox="0 0 24 24"><path fill="none" stroke="currentColor" stroke-width="2" stroke-linecap="round" stroke-linejoin="round" d="m11.5 11.5 2.071 1.994M4 10h5m11 0h-1.5M12 7V4M7 7V4m10 3V4m-7 13H8v-2l5.227-5.292a1.46 1.46 0 0 1 2.065 2.065L10 17Zm-5 3h14a1 1 0 0 0 1-1V7a1 1 0 0 0-1-1H5a1 1 0 0 0-1 1v12a1 1 0 0 0 1 1Z"></path></symbol>
  <symbol id="icon-chart" viewBox="0 0 24 24"><path fill="none" stroke="currentColor" stroke-width="2" stroke-linecap="round" stroke-linejoin="round" d="M4 4v15a1 1 0 0 0 1 1h15M8 16l2.5-5.5 3 3L17.273 7 20 9.667"></path></symbol>
  <symbol id="icon-chart-mixed" viewBox="0 0 24 24"><path fill="none" stroke="currentColor" stroke-width="2" stroke-linecap="round" stroke-linejoin="round" d="M3 15v4m6-6v6m6-4v4m6-6v6M3 11l6-5 6 5 5.5-5.5"></path></symbol>
  <symbol id="icon-chart-pie" viewBox="0 0 24 24"><path fill="none" stroke="currentColor" stroke-width="2" stroke-linecap="round" stroke-linejoin="round" d="M10 6.025A7.5 7.5 0 1 0 17.975 14H10V6.025Z"></path><path fill="none" stroke="currentColor" stroke-width="2" stroke-linecap="round" stroke-linejoin="round" d="M13.5 3c-.169 0-.334.014-.5.025V11h7.975c.011-.166.025-.331.025-.5A7.5 7.5 0 0 0 13.5 3Z"></path></symbol>
  <symbol id="icon-check" viewBox="0 0 24 24"><path fill="none" stroke="currentColor" stroke-width="2" stroke-linecap="round" stroke-linejoin="round" d="M5 11.917 9.724 16.5 19 7.5"></path></symbol>
  <symbol id="icon-check-circle" viewBox="0 0 24 24"><path fill="none" stroke="currentColor" stroke-width="2" stroke-linecap="round" stroke-linejoin="round" d="M8.5 11.5 11 14l4-4m6 2a9 9 0 1 1-18 0 9 9 0 0 1 18 0Z"></path></symbol>
  <symbol id="icon-check-circle-alt" viewBox="0 0 24 24"><path fill="currentColor" fill-rule="evenodd" d="M2 12C2 6.477 6.477 2 12 2s10 4.477 10 10-4.477 10-10 10S2 17.523 2 12Zm13.707-1.293a1 1 0 0 0-1.414-1.414L11 12.586l-1.793-1.793a1 1 0 0 0-1.414 1.414l2.5 2.5a1 1 0 0 0 1.414 0l4-4Z" clip-rule="evenodd"></path></symbol>
  <symbol id="icon-minus-circle" viewBox="0 0 24 24"><path fill="none" stroke="currentColor" stroke-width="2" stroke-linecap="round" stroke-linejoin="round" d="M7.757 12h8.486M21 12a9 9 0 1 1-18 0 9 9 0 0 1 18 0Z"></path></symbol>
  <symbol id="icon-minus-circle-alt" viewBox="0 0 24 24"><path fill="currentColor" fill-rule="evenodd" d="M2 12C2 6.477 6.477 2 12 2s10 4.477 10 10-4.477 10-10 10S2 17.523 2 12Zm5.757-1a1 1 0 1 0 0 2h8.486a1 1 0 1 0 0-2H7.757Z" clip-rule="evenodd"></path></symbol>
  <symbol id="icon-plus-circle" viewBox="0 0 24 24"><path fill="currentColor" fill-rule="evenodd" d="M2 12C2 6.477 6.477 2 12 2s10 4.477 10 10-4.477 10-10 10S2 17.523 2 12Zm11-4.243a1 1 0 1 0-2 0V11H7.757a1 1 0 1 0 0 2H11v3.243a1 1 0 1 0 2 0V13h3.243a1 1 0 1 0 0-2H13V7.757Z" clip-rule="evenodd"></path></symbol>
  <symbol id="icon-plus-circle-alt" viewBox="0 0 24 24"><path fill="none" stroke="currentColor" stroke-width="2" stroke-linecap="round" stroke-linejoin="round" d="M12 7.757v8.486M7.757 12h8.486M21 12a9 9 0 1 1-18 0 9 9 0 0 1 18 0Z"></path></symbol>
  <symbol id="icon-clipboard" viewBox="0 0 24 24"><path fill="none" stroke="currentColor" stroke-width="2" stroke-linecap="round" stroke-linejoin="round" d="M15 4h3a1 1 0 0 1 1 1v15a1 1 0 0 1-1 1H6a1 1 0 0 1-1-1V5a1 1 0 0 1 1-1h3m0 3h6m-6 5h6m-6 4h6M10 3v4h4V3h-4Z"></path></symbol>
  <symbol id="icon-clipboard-check" viewBox="0 0 24 24"><path fill="none" stroke="currentColor" stroke-width="2" stroke-linecap="round" stroke-linejoin="round" d="M15 4h3a1 1 0 0 1 1 1v15a1 1 0 0 1-1 1H6a1 1 0 0 1-1-1V5a1 1 0 0 1 1-1h3m0 3h6m-6 7 2 2 4-4m-5-9v4h4V3h-4Z"></path></symbol>
  <symbol id="icon-clipboard-list" viewBox="0 0 24 24"><path fill="none" stroke="currentColor" stroke-width="2" stroke-linecap="round" stroke-linejoin="round" d="M15 4h3a1 1 0 0 1 1 1v15a1 1 0 0 1-1 1H6a1 1 0 0 1-1-1V5a1 1 0 0 1 1-1h3m0 3h6m-3 5h3m-6 0h.01M12 16h3m-6 0h.01M10 3v4h4V3h-4Z"></path></symbol>
  <symbol id="icon-clock-arrow" viewBox="0 0 24 24"><path fill="none" stroke="currentColor" stroke-width="2" stroke-linecap="round" stroke-linejoin="round" d="M12 8v4l3 3M3.22302 14C4.13247 18.008 7.71683 21 12 21c4.9706 0 9-4.0294 9-9 0-4.97056-4.0294-9-9-9-3.72916 0-6.92858 2.26806-8.29409 5.5M7 9H3V5"></path></symbol>
  <symbol id="icon-close-circle" viewBox="0 0 24 24"><path fill="none" stroke="currentColor" stroke-width="2" stroke-linecap="round" stroke-linejoin="round" d="m15 9-6 6m0-6 6 6m6-3a9 9 0 1 1-18 0 9 9 0 0 1 18 0Z"></path></symbol>
  <symbol id="icon-close-sidebar" viewBox="0 0 24 24"><path fill="none" stroke="currentColor" stroke-width="2" stroke-linecap="round" stroke-linejoin="round" d="M7.99994 10 6 11.9999l1.99994 2M11 5v14m-7 0h16c.5523 0 1-.4477 1-1V6c0-.55228-.4477-1-1-1H4c-.55228 0-1 .44772-1 1v12c0 .5523.44772 1 1 1Z"></path></symbol>
  <symbol id="icon-column" viewBox="0 0 24 24"><path fill="none" stroke="currentColor" stroke-width="2" stroke-linecap="round" stroke-linejoin="round" d="M15 5v14M9 5v14M4 5h16a1 1 0 0 1 1 1v12a1 1 0 0 1-1 1H4a1 1 0 0 1-1-1V6a1 1 0 0 1 1-1Z"></path></symbol>
  <symbol id="icon-download" viewBox="0 0 24 24"><path fill="none" stroke="currentColor" stroke-width="2" stroke-linecap="round" stroke-linejoin="round" d="M12 13V4M7 14H5a1 1 0 0 0-1 1v4a1 1 0 0 0 1 1h14a1 1 0 0 0 1-1v-4a1 1 0 0 0-1-1h-2m-1-5-4 5-4-5m9 8h.01"></path></symbol>
  <symbol id="icon-exclamation" viewBox="0 0 24 24"><path fill="none" stroke="currentColor" stroke-width="2" stroke-linecap="round" stroke-linejoin="round" d="M12 13V8m0 8h.01M21 12a9 9 0 1 1-18 0 9 9 0 0 1 18 0Z"></path></symbol>
  <symbol id="icon-expand" viewBox="0 0 24 24"><path fill="none" stroke="currentColor" stroke-width="2" stroke-linecap="round" stroke-linejoin="round" d="M8 4H4m0 0v4m0-4 5 5m7-5h4m0 0v4m0-4-5 5M8 20H4m0 0v-4m0 4 5-5m7 5h4m0 0v-4m0 4-5-5"></path></symbol>
  <symbol id="icon-eye" viewBox="0 0 24 24"><path fill="none" stroke="currentColor" stroke-width="2" stroke-linecap="round" stroke-linejoin="round" d="M21 12c0 1.2-4.03 6-9 6s-9-4.8-9-6c0-1.2 4.03-6 9-6s9 4.8 9 6Z"></path><path fill="none" stroke="currentColor" stroke-width="2" stroke-linecap="round" stroke-linejoin="round" d="M15 12a3 3 0 1 1-6 0 3 3 0 0 1 6 0Z"></path></symbol>
  <symbol id="icon-file" viewBox="0 0 24 24"><path fill="none" stroke="currentColor" stroke-width="2" stroke-linecap="round" stroke-linejoin="round" d="M10 3v4a1 1 0 0 1-1 1H5m14-4v16a1 1 0 0 1-1 1H6a1 1 0 0 1-1-1V7.914a1 1 0 0 1 .293-.707l3.914-3.914A1 1 0 0 1 9.914 3H18a1 1 0 0 1 1 1Z"></path></symbol>
  <symbol id="icon-file-chart" viewBox="0 0 24 24"><path fill="none" stroke="currentColor" stroke-width="2" stroke-linecap="round" stroke-linejoin="round" d="M10 3v4a1 1 0 0 1-1 1H5m4 10v-2m3 2v-6m3 6v-3m4-11v16a1 1 0 0 1-1 1H6a1 1 0 0 1-1-1V7.914a1 1 0 0 1 .293-.707l3.914-3.914A1 1 0 0 1 9.914 3H18a1 1 0 0 1 1 1Z"></path></symbol>
  <symbol id="icon-file-check" viewBox="0 0 24 24"><path fill="none" stroke="currentColor" stroke-width="2" stroke-linecap="round" stroke-linejoin="round" d="M10 3v4a1 1 0 0 1-1 1H5m4 6 2 2 4-4m4-8v16a1 1 0 0 1-1 1H6a1 1 0 0 1-1-1V7.914a1 1 0 0 1 .293-.707l3.914-3.914A1 1 0 0 1 9.914 3H18a1 1 0 0 1 1 1Z"></path></symbol>
  <symbol id="icon-file-clone" viewBox="0 0 24 24"><path fill="none" stroke="currentColor" stroke-width="2" stroke-linecap="round" stroke-linejoin="round" d="M15 4v3a1 1 0 0 1-1 1h-3m2 10v1a1 1 0 0 1-1 1H5a1 1 0 0 1-1-1v-7.13a1 1 0 0 1 .24-.65L6.7 8.35A1 1 0 0 1 7.46 8H9m-1 4H4m16-7v10a1 1 0 0 1-1 1h-7a1 1 0 0 1-1-1V7.87a1 1 0 0 1 .24-.65l2.46-2.87a1 1 0 0 1 .76-.35H19a1 1 0 0 1 1 1Z"></path></symbol>
  <symbol id="icon-file-search" viewBox="0 0 24 24"><path fill="none" stroke="currentColor" stroke-width="2" stroke-linecap="round" stroke-linejoin="round" d="M10 3v4a1 1 0 0 1-1 1H5m8 7.5 2.5 2.5M19 4v16a1 1 0 0 1-1 1H6a1 1 0 0 1-1-1V7.914a1 1 0 0 1 .293-.707l3.914-3.914A1 1 0 0 1 9.914 3H18a1 1 0 0 1 1 1Zm-5 9.5a2.5 2.5 0 1 1-5 0 2.5 2.5 0 0 1 5 0Z"></path></symbol>
  <symbol id="icon-filter" viewBox="0 0 24 24"><path fill="none" stroke="currentColor" stroke-width="2" stroke-linecap="round" stroke-linejoin="round" d="M18.796 4H5.204a1 1 0 0 0-.753 1.659l5.302 6.058a1 1 0 0 1 .247.659v4.874a.5.5 0 0 0 .2.4l3 2.25a.5.5 0 0 0 .8-.4v-7.124a1 1 0 0 1 .247-.659l5.302-6.059c.566-.646.106-1.658-.753-1.658Z"></path></symbol>
  <symbol id="icon-flag" viewBox="0 0 24 24"><path fill="none" stroke="currentColor" stroke-width="2" stroke-linecap="round" stroke-linejoin="round" d="M5 14v7M5 4.971v9.541c5.6-5.538 8.4 2.64 14-.086v-9.54C13.4 7.61 10.6-.568 5 4.97Z"></path></symbol>
  <symbol id="icon-folder" viewBox="0 0 24 24"><path fill="none" stroke="currentColor" stroke-width="2" stroke-linecap="round" stroke-linejoin="round" d="M13.5 8H4m0-2v13a1 1 0 0 0 1 1h14a1 1 0 0 0 1-1V9a1 1 0 0 0-1-1h-5.032a1 1 0 0 1-.768-.36l-1.9-2.28a1 1 0 0 0-.768-.36H5a1 1 0 0 0-1 1Z"></path></symbol>
  <symbol id="icon-forward" viewBox="0 0 24 24"><path fill="none" stroke="currentColor" stroke-width="2" stroke-linecap="round" stroke-linejoin="round" d="M4.248 19C3.22 15.77 5.275 8.232 12.466 8.232V6.079a1.025 1.025 0 0 1 1.644-.862l5.479 4.307a1.108 1.108 0 0 1 0 1.723l-5.48 4.307a1.026 1.026 0 0 1-1.643-.861v-2.154C5.275 13.616 4.248 19 4.248 19Z"></path></symbol>
  <symbol id="icon-globe" viewBox="0 0 24 24"><path fill="none" stroke="currentColor" stroke-width="2" stroke-linecap="round" stroke-linejoin="round" d="M4.37 7.657c2.063.528 2.396 2.806 3.202 3.87 1.07 1.413 2.075 1.228 3.192 2.644 1.805 2.289 1.312 5.705 1.312 6.705M20 15h-1a4 4 0 0 0-4 4v1M8.587 3.992c0 .822.112 1.886 1.515 2.58 1.402.693 2.918.351 2.918 2.334 0 .276 0 2.008 1.972 2.008 2.026.031 2.026-1.678 2.026-2.008 0-.65.527-.9 1.177-.9H20M21 12a9 9 0 1 1-18 0 9 9 0 0 1 18 0Z"></path></symbol>
  <symbol id="icon-grid" viewBox="0 0 24 24"><path fill="none" stroke="currentColor" stroke-width="2" stroke-linecap="round" stroke-linejoin="round" d="M9.143 4H4.857A.857.857 0 0 0 4 4.857v4.286c0 .473.384.857.857.857h4.286A.857.857 0 0 0 10 9.143V4.857A.857.857 0 0 0 9.143 4Zm10 0h-4.286a.857.857 0 0 0-.857.857v4.286c0 .473.384.857.857.857h4.286A.857.857 0 0 0 20 9.143V4.857A.857.857 0 0 0 19.143 4Zm-10 10H4.857a.857.857 0 0 0-.857.857v4.286c0 .473.384.857.857.857h4.286a.857.857 0 0 0 .857-.857v-4.286A.857.857 0 0 0 9.143 14Zm10 0h-4.286a.857.857 0 0 0-.857.857v4.286c0 .473.384.857.857.857h4.286a.857.857 0 0 0 .857-.857v-4.286a.857.857 0 0 0-.857-.857Z"></path></symbol>
  <symbol id="icon-hourglass" viewBox="0 0 24 24"><path fill="none" stroke="currentColor" stroke-width="2" stroke-linecap="round" stroke-linejoin="round" d="M18.5 4h-13m13 16h-13M8 20v-3.333a2 2 0 0 1 .4-1.2L10 12.6a1 1 0 0 0 0-1.2L8.4 8.533a2 2 0 0 1-.4-1.2V4h8v3.333a2 2 0 0 1-.4 1.2L13.957 11.4a1 1 0 0 0 0 1.2l1.643 2.867a2 2 0 0 1 .4 1.2V20H8Z"></path></symbol>
  <symbol id="icon-info-circle" viewBox="0 0 24 24"><path fill="none" stroke="currentColor" stroke-width="2" stroke-linecap="round" stroke-linejoin="round" d="M10 11h2v5m-2 0h4m-2.592-8.5h.01M21 12a9 9 0 1 1-18 0 9 9 0 0 1 18 0Z"></path></symbol>
  <symbol id="icon-lightbulb" viewBox="0 0 24 24"><path fill="none" stroke="currentColor" stroke-width="2" stroke-linecap="round" stroke-linejoin="round" d="M9 9a3 3 0 0 1 3-3m-2 15h4m0-3c0-4.1 4-4.9 4-9A6 6 0 1 0 6 9c0 4 4 5 4 9h4Z"></path></symbol>
  <symbol id="icon-lifesaver" viewBox="0 0 24 24"><path fill="none" stroke="currentColor" stroke-width="2" stroke-linecap="round" stroke-linejoin="round" d="m13.46 8.291 3.849-3.849a1.5 1.5 0 0 1 2.122 0l.127.127a1.5 1.5 0 0 1 0 2.122l-3.84 3.838a4 4 0 0 0-2.258-2.238Zm0 0a4 4 0 0 1 2.263 2.238l3.662-3.662a8.961 8.961 0 0 1 0 10.27l-3.676-3.676m-2.25-5.17 3.678-3.676a8.961 8.961 0 0 0-10.27 0l3.662 3.662a4 4 0 0 0-2.238 2.258L4.615 6.863a8.96 8.96 0 0 0 0 10.27l3.662-3.662a4 4 0 0 0 2.258 2.238l-3.672 3.676a8.96 8.96 0 0 0 10.27 0l-3.662-3.662a4.001 4.001 0 0 0 2.238-2.262m0 0 3.849 3.848a1.5 1.5 0 0 1 0 2.122l-.127.126a1.499 1.499 0 0 1-2.122 0l-3.838-3.838a4 4 0 0 0 2.238-2.258Zm.29-1.461a4 4 0 1 1-8 0 4 4 0 0 1 8 0Zm-7.718 1.471-3.84 3.838a1.5 1.5 0 0 0 0 2.122l.128.126a1.5 1.5 0 0 0 2.122 0l3.848-3.848a4 4 0 0 1-2.258-2.238Zm2.248-5.19L6.69 4.442a1.5 1.5 0 0 0-2.122 0l-.127.127a1.5 1.5 0 0 0 0 2.122l3.849 3.848a4 4 0 0 1 2.238-2.258Z"></path></symbol>
  <symbol id="icon-lock" viewBox="0 0 24 24"><path fill="none" stroke="currentColor" stroke-width="2" stroke-linecap="round" stroke-linejoin="round" d="M12 14v3m-3-6V7a3 3 0 1 1 6 0v4m-8 0h10a1 1 0 0 1 1 1v7a1 1 0 0 1-1 1H7a1 1 0 0 1-1-1v-7a1 1 0 0 1 1-1Z"></path></symbol>
  <symbol id="icon-unlock" viewBox="0 0 24 24"><path fill="none" stroke="currentColor" stroke-width="2" stroke-linecap="round" stroke-linejoin="round" d="M10 14v3m4-6V7a3 3 0 1 1 6 0v4M5 11h10a1 1 0 0 1 1 1v7a1 1 0 0 1-1 1H5a1 1 0 0 1-1-1v-7a1 1 0 0 1 1-1Z"></path></symbol>
  <symbol id="icon-microscope" viewBox="0 0 24 24"><path fill="none" stroke="currentColor" stroke-width="2" stroke-linecap="round" stroke-linejoin="round" d="M5.6427 21h14M16.2928 9c.8398.95515 1.3499 2.213 1.3499 3.5912 0 2.9872-2.3962 5.4088-5.3521 5.4088-1.9895 0-3.72545-1.097-4.6479-2.7251m-2-.2749h6m.4369-4.4369L10.6427 12m5.8092-5.76698 2.1554-2.15534M17.5296 3l2.1553 2.15534M10.6427 18v3m4-3v3m.7315-15.84464-4.3107 4.31068 2.1554 2.15536 4.3107-4.3107-2.1554-2.15534Z"></path></symbol>
  <symbol id="icon-pen" viewBox="0 0 24 24"><path fill="none" stroke="currentColor" stroke-width="2" stroke-linecap="round" stroke-linejoin="round" d="M10.779 17.779 4.36 19.918 6.5 13.5m4.279 4.279 8.364-8.643a3.027 3.027 0 0 0-2.14-5.165 3.03 3.03 0 0 0-2.14.886L6.5 13.5m4.279 4.279L6.499 13.5m2.14 2.14 6.213-6.504M12.75 7.04 17 11.28"></path></symbol>
  <symbol id="icon-printer" viewBox="0 0 24 24"><path fill="none" stroke="currentColor" stroke-width="2" stroke-linecap="round" stroke-linejoin="round" d="M16.444 18H19a1 1 0 0 0 1-1v-5a1 1 0 0 0-1-1H5a1 1 0 0 0-1 1v5a1 1 0 0 0 1 1h2.556M17 11V5a1 1 0 0 0-1-1H8a1 1 0 0 0-1 1v6h10ZM7 15h10v4a1 1 0 0 1-1 1H8a1 1 0 0 1-1-1v-4Z"></path></symbol>
  <symbol id="icon-profile-card" viewBox="0 0 24 24"><path fill="none" stroke="currentColor" stroke-width="2" stroke-linecap="round" stroke-linejoin="round" d="M15 9h3m-3 3h3m-3 3h3m-6 1c-.306-.613-.933-1-1.618-1H7.618c-.685 0-1.312.387-1.618 1M4 5h16a1 1 0 0 1 1 1v12a1 1 0 0 1-1 1H4a1 1 0 0 1-1-1V6a1 1 0 0 1 1-1Zm7 5a2 2 0 1 1-4 0 2 2 0 0 1 4 0Z"></path></symbol>
  <symbol id="icon-rectangle-list" viewBox="0 0 24 24"><path fill="none" stroke="currentColor" stroke-width="2" stroke-linecap="round" stroke-linejoin="round" d="M11 9h6m-6 3h6m-6 3h6M6.996 9h.01m-.01 3h.01m-.01 3h.01M4 5h16a1 1 0 0 1 1 1v12a1 1 0 0 1-1 1H4a1 1 0 0 1-1-1V6a1 1 0 0 1 1-1Z"></path></symbol>
  <symbol id="icon-tools" viewBox="0 0 24 24"><path fill="none" stroke="currentColor" stroke-width="2" stroke-linecap="round" stroke-linejoin="round" d="M7.58209 8.96025 9.8136 11.1917l-1.61782 1.6178c-1.08305-.1811-2.23623.1454-3.07364.9828-1.1208 1.1208-1.32697 2.8069-.62368 4.1363.14842.2806.42122.474.73509.5213.06726.0101.1347.0133.20136.0098-.00351.0666-.00036.1341.00977.2013.04724.3139.24069.5867.52125.7351 1.32944.7033 3.01552.4971 4.13627-.6237.8375-.8374 1.1639-1.9906.9829-3.0736l4.8107-4.8108c1.0831.1811 2.2363-.1454 3.0737-.9828 1.1208-1.1208 1.3269-2.80688.6237-4.13632-.1485-.28056-.4213-.474-.7351-.52125-.0673-.01012-.1347-.01327-.2014-.00977.0035-.06666.0004-.13409-.0098-.20136-.0472-.31386-.2406-.58666-.5212-.73508-1.3294-.70329-3.0155-.49713-4.1363.62367-.8374.83741-1.1639 1.9906-.9828 3.07365l-1.7788 1.77875-2.23152-2.23148-1.41419 1.41424Zm1.31056-3.1394c-.04235-.32684-.24303-.61183-.53647-.76186l-1.98183-1.0133c-.38619-.19746-.85564-.12345-1.16234.18326l-.86321.8632c-.3067.3067-.38072.77616-.18326 1.16235l1.0133 1.98182c.15004.29345.43503.49412.76187.53647l1.1127.14418c.3076.03985.61628-.06528.8356-.28461l.86321-.8632c.21932-.21932.32446-.52801.2846-.83561l-.14417-1.1127ZM19.4448 16.4052l-3.1186-3.1187c-.7811-.781-2.0474-.781-2.8285 0l-.1719.172c-.7811.781-.7811 2.0474 0 2.8284l3.1186 3.1187c.7811.781 2.0474.781 2.8285 0l.1719-.172c.7811-.781.7811-2.0474 0-2.8284Z"></path></symbol>
  <symbol id="icon-trashbin" viewBox="0 0 24 24"><path fill="none" stroke="currentColor" stroke-width="2" stroke-linecap="round" stroke-linejoin="round" d="M5 7h14m-9 3v8m4-8v8M10 3h4a1 1 0 0 1 1 1v3H9V4a1 1 0 0 1 1-1ZM6 7h12v13a1 1 0 0 1-1 1H7a1 1 0 0 1-1-1V7Z"></path></symbol>
  <symbol id="icon-truck" viewBox="0 0 24 24"><path fill="none" stroke="currentColor" stroke-width="2" stroke-linecap="round" stroke-linejoin="round" d="M13 7h6l2 4m-8-4v8m0-8V6a1 1 0 0 0-1-1H4a1 1 0 0 0-1 1v9h2m8 0H9m4 0h2m4 0h2v-4m0 0h-5m3.5 5.5a2.5 2.5 0 1 1-5 0 2.5 2.5 0 0 1 5 0Zm-10 0a2.5 2.5 0 1 1-5 0 2.5 2.5 0 0 1 5 0Z"></path></symbol>
  <symbol id="icon-zoom-in" viewBox="0 0 24 24"><path fill="none" stroke="currentColor" stroke-width="2" stroke-linecap="round" stroke-linejoin="round" d="m21 21-3.5-3.5M10 7v6m-3-3h6m4 0a7 7 0 1 1-14 0 7 7 0 0 1 14 0Z"></path></symbol>
  <symbol id="icon-zoom-out" viewBox="0 0 24 24"><path fill="none" stroke="currentColor" stroke-width="2" stroke-linecap="round" stroke-linejoin="round" d="m21 21-3.5-3.5M7 10h6m4 0a7 7 0 1 1-14 0 7 7 0 0 1 14 0Z"></path></symbol>
  <symbol id="icon-chart-up" viewBox="0 0 24 24"><path fill="none" stroke="currentColor" stroke-width="2" stroke-linecap="round" stroke-linejoin="round" d="M4 4.5V19a1 1 0 0 0 1 1h15M7 14l4-4 4 4 5-5m0 0h-3.207M20 9v3.207"></path></symbol>
  <symbol id="icon-arrow-move" viewBox="0 0 24 24"><path fill="currentColor" stroke="currentColor" stroke-width="0.5" stroke-linecap="round" stroke-linejoin="round" fill-rule="evenodd" d="M7.646.146a.5.5 0 0 1 .708 0l2 2a.5.5 0 0 1-.708.708L8.5 1.707V5.5a.5.5 0 0 1-1 0V1.707L6.354 2.854a.5.5 0 1 1-.708-.708zM8 10a.5.5 0 0 1 .5.5v3.793l1.146-1.147a.5.5 0 0 1 .708.708l-2 2a.5.5 0 0 1-.708 0l-2-2a.5.5 0 0 1 .708-.708L7.5 14.293V10.5A.5.5 0 0 1 8 10M.146 8.354a.5.5 0 0 1 0-.708l2-2a.5.5 0 1 1 .708.708L1.707 7.5H5.5a.5.5 0 0 1 0 1H1.707l1.147 1.146a.5.5 0 0 1-.708.708zM10 8a.5.5 0 0 1 .5-.5h3.793l-1.147-1.146a.5.5 0 0 1 .708-.708l2 2a.5.5 0 0 1 0 .708l-2 2a.5.5 0 0 1-.708-.708L14.293 8.5H10.5A.5.5 0 0 1 10 8"></path></symbol>
  <symbol id="icon-bar-chart" viewBox="0 0 24 24"><path fill="currentColor" d="M11 2a1 1 0 0 1 1-1h2a1 1 0 0 1 1 1v12h.5a.5.5 0 0 1 0 1H.5a.5.5 0 0 1 0-1H1v-3a1 1 0 0 1 1-1h2a1 1 0 0 1 1 1v3h1V7a1 1 0 0 1 1-1h2a1 1 0 0 1 1 1v7h1zm1 12h2V2h-2zm-3 0V7H7v7zm-5 0v-3H2v3z"></path></symbol>
  <symbol id="icon-bar-chart-line" viewBox="0 0 24 24"><path fill="currentColor" stroke="currentColor" stroke-width="0.5" stroke-linecap="round" stroke-linejoin="round" d="M11 2a1 1 0 0 1 1-1h2a1 1 0 0 1 1 1v12h.5a.5.5 0 0 1 0 1H.5a.5.5 0 0 1 0-1H1v-3a1 1 0 0 1 1-1h2a1 1 0 0 1 1 1v3h1V7a1 1 0 0 1 1-1h2a1 1 0 0 1 1 1v7h1zm1 12h2V2h-2zm-3 0V7H7v7zm-5 0v-3H2v3z"></path></symbol>
  <symbol id="icon-bullseye" viewBox="0 0 24 24"><path fill="currentColor" stroke="currentColor" stroke-width="0.1" stroke-linecap="round" stroke-linejoin="round" d="M8 15A7 7 0 1 1 8 1a7 7 0 0 1 0 14m0 1A8 8 0 1 0 8 0a8 8 0 0 0 0 16"></path><path fill="currentColor" stroke="currentColor" stroke-width="0.1" stroke-linecap="round" stroke-linejoin="round" d="M8 13A5 5 0 1 1 8 3a5 5 0 0 1 0 10m0 1A6 6 0 1 0 8 2a6 6 0 0 0 0 12"></path><path fill="currentColor" stroke="currentColor" stroke-width="0.1" stroke-linecap="round" stroke-linejoin="round" d="M8 11a3 3 0 1 1 0-6 3 3 0 0 1 0 6m0 1a4 4 0 1 0 0-8 4 4 0 0 0 0 8"></path><path fill="currentColor" stroke="currentColor" stroke-width="0.1" stroke-linecap="round" stroke-linejoin="round" d="M9.5 8a1.5 1.5 0 1 1-3 0 1.5 1.5 0 0 1 3 0"></path></symbol>
  <symbol id="icon-card-checklist" viewBox="0 0 24 24"><path fill="none" stroke="currentColor" stroke-width="1" stroke-linecap="round" stroke-linejoin="round" d="M14.5 3a.5.5 0 0 1 .5.5v9a.5.5 0 0 1-.5.5h-13a.5.5 0 0 1-.5-.5v-9a.5.5 0 0 1 .5-.5zm-13-1A1.5 1.5 0 0 0 0 3.5v9A1.5 1.5 0 0 0 1.5 14h13a1.5 1.5 0 0 0 1.5-1.5v-9A1.5 1.5 0 0 0 14.5 2z"></path><path fill="none" stroke="currentColor" stroke-width="1" stroke-linecap="round" stroke-linejoin="round" d="M7 5.5a.5.5 0 0 1 .5-.5h5a.5.5 0 0 1 0 1h-5a.5.5 0 0 1-.5-.5m-1.496-.854a.5.5 0 0 1 0 .708l-1.5 1.5a.5.5 0 0 1-.708 0l-.5-.5a.5.5 0 1 1 .708-.708l.146.147 1.146-1.147a.5.5 0 0 1 .708 0M7 9.5a.5.5 0 0 1 .5-.5h5a.5.5 0 0 1 0 1h-5a.5.5 0 0 1-.5-.5m-1.496-.854a.5.5 0 0 1 0 .708l-1.5 1.5a.5.5 0 0 1-.708 0l-.5-.5a.5.5 0 0 1 .708-.708l.146.147 1.146-1.147a.5.5 0 0 1 .708 0"></path></symbol>
  <symbol id="icon-compass" viewBox="0 0 24 24"><path fill="currentColor" d="M8 16.016a7.5 7.5 0 0 0 1.962-14.74A1 1 0 0 0 9 0H7a1 1 0 0 0-.962 1.276A7.5 7.5 0 0 0 8 16.016m6.5-7.5a6.5 6.5 0 1 1-13 0 6.5 6.5 0 0 1 13 0"></path><path fill="currentColor" d="m6.94 7.44 4.95-2.83-2.83 4.95-4.949 2.83 2.828-4.95z"></path></symbol>
  <symbol id="icon-cone" viewBox="0 0 24 24"><path fill="none" stroke="currentColor" stroke-width="1.5" stroke-linecap="round" stroke-linejoin="round" d="M7.03 1.88c.252-1.01 1.688-1.01 1.94 0l2.905 11.62H14a.5.5 0 0 1 0 1H2a.5.5 0 0 1 0-1h2.125z"></path></symbol>
  <symbol id="icon-cone-striped" viewBox="0 0 24 24"><path fill="none" stroke="currentColor" stroke-width="1.5" stroke-linecap="round" stroke-linejoin="round" d="m9.97 4.88.953 3.811C10.159 8.878 9.14 9 8 9s-2.158-.122-2.923-.309L6.03 4.88C6.635 4.957 7.3 5 8 5s1.365-.043 1.97-.12m-.245-.978L8.97.88C8.718-.13 7.282-.13 7.03.88L6.275 3.9C6.8 3.965 7.382 4 8 4s1.2-.036 1.725-.098m4.396 8.613a.5.5 0 0 1 .037.96l-6 2a.5.5 0 0 1-.316 0l-6-2a.5.5 0 0 1 .037-.96l2.391-.598.565-2.257c.862.212 1.964.339 3.165.339s2.303-.127 3.165-.339l.565 2.257z"></path></symbol>
  <symbol id="icon-diagram-2" viewBox="0 0 24 24"><path fill="currentColor" fill-rule="evenodd" d="M6 3.5A1.5 1.5 0 0 1 7.5 2h1A1.5 1.5 0 0 1 10 3.5v1A1.5 1.5 0 0 1 8.5 6v1H11a.5.5 0 0 1 .5.5v1a.5.5 0 0 1-1 0V8h-5v.5a.5.5 0 0 1-1 0v-1A.5.5 0 0 1 5 7h2.5V6A1.5 1.5 0 0 1 6 4.5zM8.5 5a.5.5 0 0 0 .5-.5v-1a.5.5 0 0 0-.5-.5h-1a.5.5 0 0 0-.5.5v1a.5.5 0 0 0 .5.5zM3 11.5A1.5 1.5 0 0 1 4.5 10h1A1.5 1.5 0 0 1 7 11.5v1A1.5 1.5 0 0 1 5.5 14h-1A1.5 1.5 0 0 1 3 12.5zm1.5-.5a.5.5 0 0 0-.5.5v1a.5.5 0 0 0 .5.5h1a.5.5 0 0 0 .5-.5v-1a.5.5 0 0 0-.5-.5zm4.5.5a1.5 1.5 0 0 1 1.5-1.5h1a1.5 1.5 0 0 1 1.5 1.5v1a1.5 1.5 0 0 1-1.5 1.5h-1A1.5 1.5 0 0 1 9 12.5zm1.5-.5a.5.5 0 0 0-.5.5v1a.5.5 0 0 0 .5.5h1a.5.5 0 0 0 .5-.5v-1a.5.5 0 0 0-.5-.5z"></path></symbol>
  <symbol id="icon-diagram-3" viewBox="0 0 24 24"><path fill="currentColor" fill-rule="evenodd" d="M6 3.5A1.5 1.5 0 0 1 7.5 2h1A1.5 1.5 0 0 1 10 3.5v1A1.5 1.5 0 0 1 8.5 6v1H14a.5.5 0 0 1 .5.5v1a.5.5 0 0 1-1 0V8h-5v.5a.5.5 0 0 1-1 0V8h-5v.5a.5.5 0 0 1-1 0v-1A.5.5 0 0 1 2 7h5.5V6A1.5 1.5 0 0 1 6 4.5zM8.5 5a.5.5 0 0 0 .5-.5v-1a.5.5 0 0 0-.5-.5h-1a.5.5 0 0 0-.5.5v1a.5.5 0 0 0 .5.5zM0 11.5A1.5 1.5 0 0 1 1.5 10h1A1.5 1.5 0 0 1 4 11.5v1A1.5 1.5 0 0 1 2.5 14h-1A1.5 1.5 0 0 1 0 12.5zm1.5-.5a.5.5 0 0 0-.5.5v1a.5.5 0 0 0 .5.5h1a.5.5 0 0 0 .5-.5v-1a.5.5 0 0 0-.5-.5zm4.5.5A1.5 1.5 0 0 1 7.5 10h1a1.5 1.5 0 0 1 1.5 1.5v1A1.5 1.5 0 0 1 8.5 14h-1A1.5 1.5 0 0 1 6 12.5zm1.5-.5a.5.5 0 0 0-.5.5v1a.5.5 0 0 0 .5.5h1a.5.5 0 0 0 .5-.5v-1a.5.5 0 0 0-.5-.5zm4.5.5a1.5 1.5 0 0 1 1.5-1.5h1a1.5 1.5 0 0 1 1.5 1.5v1a1.5 1.5 0 0 1-1.5 1.5h-1a1.5 1.5 0 0 1-1.5-1.5zm1.5-.5a.5.5 0 0 0-.5.5v1a.5.5 0 0 0 .5.5h1a.5.5 0 0 0 .5-.5v-1a.5.5 0 0 0-.5-.5z" stroke="currentColor" stroke-width="0.3" stroke-linecap="round" stroke-linejoin="round"></path></symbol>
  <symbol id="icon-exclamation-triangle" viewBox="0 0 24 24"><path fill="currentColor" d="M7.938 2.016A.13.13 0 0 1 8.002 2a.13.13 0 0 1 .063.016.15.15 0 0 1 .054.057l6.857 11.667c.036.06.035.124.002.183a.2.2 0 0 1-.054.06.1.1 0 0 1-.066.017H1.146a.1.1 0 0 1-.066-.017.2.2 0 0 1-.054-.06.18.18 0 0 1 .002-.183L7.884 2.073a.15.15 0 0 1 .054-.057m1.044-.45a1.13 1.13 0 0 0-1.96 0L.165 13.233c-.457.778.091 1.767.98 1.767h13.713c.889 0 1.438-.99.98-1.767z" stroke="currentColor" stroke-width="0.3" stroke-linecap="round" stroke-linejoin="round"></path><path fill="currentColor" d="M7.002 12a1 1 0 1 1 2 0 1 1 0 0 1-2 0M7.1 5.995a.905.905 0 1 1 1.8 0l-.35 3.507a.552.552 0 0 1-1.1 0z" stroke="currentColor" stroke-width="0.3" stroke-linecap="round" stroke-linejoin="round"></path></symbol>
  <symbol id="icon-exclamation-diamond" viewBox="0 0 24 24"><path fill="currentColor" d="M6.95.435c.58-.58 1.52-.58 2.1 0l6.515 6.516c.58.58.58 1.519 0 2.098L9.05 15.565c-.58.58-1.519.58-2.098 0L.435 9.05a1.48 1.48 0 0 1 0-2.098zm1.4.7a.495.495 0 0 0-.7 0L1.134 7.65a.495.495 0 0 0 0 .7l6.516 6.516a.495.495 0 0 0 .7 0l6.516-6.516a.495.495 0 0 0 0-.7L8.35 1.134z" stroke-linecap="round" stroke-linejoin="round" stroke="currentColor" stroke-width="0.3"></path><path fill="currentColor" d="M7.002 11a1 1 0 1 1 2 0 1 1 0 0 1-2 0M7.1 4.995a.905.905 0 1 1 1.8 0l-.35 3.507a.552.552 0 0 1-1.1 0z" stroke-linecap="round" stroke-linejoin="round" stroke="currentColor" stroke-width="0.3"></path></symbol>
  <symbol id="icon-globe-americas" viewBox="0 0 24 24"><path fill="currentColor" d="M8 0a8 8 0 1 0 0 16A8 8 0 0 0 8 0M2.04 4.326c.325 1.329 2.532 2.54 3.717 3.19.48.263.793.434.743.484q-.121.12-.242.234c-.416.396-.787.749-.758 1.266.035.634.618.824 1.214 1.017.577.188 1.168.38 1.286.983.082.417-.075.988-.22 1.52-.215.782-.406 1.48.22 1.48 1.5-.5 3.798-3.186 4-5 .138-1.243-2-2-3.5-2.5-.478-.16-.755.081-.99.284-.172.15-.322.279-.51.216-.445-.148-2.5-2-1.5-2.5.78-.39.952-.171 1.227.182.078.099.163.208.273.318.609.304.662-.132.723-.633.039-.322.081-.671.277-.867.434-.434 1.265-.791 2.028-1.12.712-.306 1.365-.587 1.579-.88A7 7 0 1 1 2.04 4.327Z"></path></symbol>
  <symbol id="icon-lightning" viewBox="0 0 24 24"><path fill="currentColor" d="M5.52.359A.5.5 0 0 1 6 0h4a.5.5 0 0 1 .474.658L8.694 6H12.5a.5.5 0 0 1 .395.807l-7 9a.5.5 0 0 1-.873-.454L6.823 9.5H3.5a.5.5 0 0 1-.48-.641zM6.374 1 4.168 8.5H7.5a.5.5 0 0 1 .478.647L6.78 13.04 11.478 7H8a.5.5 0 0 1-.474-.658L9.306 1z" stroke="currentColor" stroke-width="0.2" stroke-linecap="round" stroke-linejoin="round"></path></symbol>
  <symbol id="icon-pen-alt" viewBox="0 0 24 24"><path fill="currentColor" d="m13.498.795.149-.149a1.207 1.207 0 1 1 1.707 1.708l-.149.148a1.5 1.5 0 0 1-.059 2.059L4.854 14.854a.5.5 0 0 1-.233.131l-4 1a.5.5 0 0 1-.606-.606l1-4a.5.5 0 0 1 .131-.232l9.642-9.642a.5.5 0 0 0-.642.056L6.854 4.854a.5.5 0 1 1-.708-.708L9.44.854A1.5 1.5 0 0 1 11.5.796a1.5 1.5 0 0 1 1.998-.001m-.644.766a.5.5 0 0 0-.707 0L1.95 11.756l-.764 3.057 3.057-.764L14.44 3.854a.5.5 0 0 0 0-.708z" stroke="currentColor" stroke-width="0.3" stroke-linecap="round" stroke-linejoin="round"></path></symbol>
  <symbol id="icon-speedometer" viewBox="0 0 24 24"><path fill="currentColor" d="M8 4a.5.5 0 0 1 .5.5V6a.5.5 0 0 1-1 0V4.5A.5.5 0 0 1 8 4M3.732 5.732a.5.5 0 0 1 .707 0l.915.914a.5.5 0 1 1-.708.708l-.914-.915a.5.5 0 0 1 0-.707M2 10a.5.5 0 0 1 .5-.5h1.586a.5.5 0 0 1 0 1H2.5A.5.5 0 0 1 2 10m9.5 0a.5.5 0 0 1 .5-.5h1.5a.5.5 0 0 1 0 1H12a.5.5 0 0 1-.5-.5m.754-4.246a.39.39 0 0 0-.527-.02L7.547 9.31a.91.91 0 1 0 1.302 1.258l3.434-4.297a.39.39 0 0 0-.029-.518z" stroke="currentColor" stroke-width="0.3" stroke-linecap="round" stroke-linejoin="round"></path><path fill="currentColor" fill-rule="evenodd" d="M0 10a8 8 0 1 1 15.547 2.661c-.442 1.253-1.845 1.602-2.932 1.25C11.309 13.488 9.475 13 8 13c-1.474 0-3.31.488-4.615.911-1.087.352-2.49.003-2.932-1.25A8 8 0 0 1 0 10m8-7a7 7 0 0 0-6.603 9.329c.203.575.923.876 1.68.63C4.397 12.533 6.358 12 8 12s3.604.532 4.923.96c.757.245 1.477-.056 1.68-.631A7 7 0 0 0 8 3" stroke="currentColor" stroke-width="0.3" stroke-linecap="round" stroke-linejoin="round"></path></symbol>
  <symbol id="icon-traffic-light" viewBox="0 0 24 24"><path fill="currentColor" d="M8 4a.5.5 0 0 1 .5.5V6a.5.5 0 0 1-1 0V4.5A.5.5 0 0 1 8 4M3.732 5.732a.5.5 0 0 1 .707 0l.915.914a.5.5 0 1 1-.708.708l-.914-.915a.5.5 0 0 1 0-.707M2 10a.5.5 0 0 1 .5-.5h1.586a.5.5 0 0 1 0 1H2.5A.5.5 0 0 1 2 10m9.5 0a.5.5 0 0 1 .5-.5h1.5a.5.5 0 0 1 0 1H12a.5.5 0 0 1-.5-.5m.754-4.246a.39.39 0 0 0-.527-.02L7.547 9.31a.91.91 0 1 0 1.302 1.258l3.434-4.297a.39.39 0 0 0-.029-.518z" stroke="currentColor" stroke-width="0.3" stroke-linecap="round" stroke-linejoin="round"></path><path fill="currentColor" fill-rule="evenodd" d="M0 10a8 8 0 1 1 15.547 2.661c-.442 1.253-1.845 1.602-2.932 1.25C11.309 13.488 9.475 13 8 13c-1.474 0-3.31.488-4.615.911-1.087.352-2.49.003-2.932-1.25A8 8 0 0 1 0 10m8-7a7 7 0 0 0-6.603 9.329c.203.575.923.876 1.68.63C4.397 12.533 6.358 12 8 12s3.604.532 4.923.96c.757.245 1.477-.056 1.68-.631A7 7 0 0 0 8 3" stroke="currentColor" stroke-width="0.3" stroke-linecap="round" stroke-linejoin="round"></path></symbol>
  <symbol id="icon-wrench" viewBox="0 0 24 24"><path fill="currentColor" d="M16 4.5a4.5 4.5 0 0 1-1.703 3.526L13 5l2.959-1.11q.04.3.041.61"></path><path fill="currentColor" d="M11.5 9c.653 0 1.273-.139 1.833-.39L12 5.5 11 3l3.826-1.53A4.5 4.5 0 0 0 7.29 6.092l-6.116 5.096a2.583 2.583 0 1 0 3.638 3.638L9.908 8.71A4.5 4.5 0 0 0 11.5 9m-1.292-4.361-.596.893.809-.27a.25.25 0 0 1 .287.377l-.596.893.809-.27.158.475-1.5.5a.25.25 0 0 1-.287-.376l.596-.893-.809.27a.25.25 0 0 1-.287-.377l.596-.893-.809.27-.158-.475 1.5-.5a.25.25 0 0 1 .287.376M3 14a1 1 0 1 1 0-2 1 1 0 0 1 0 2"></path></symbol>
  <symbol id="icon-search" viewBox="0 0 24 24"><path fill="currentColor" stroke="currentColor" stroke-width="0.3" stroke-linecap="round" stroke-linejoin="round" d="M11.742 10.344a6.5 6.5 0 1 0-1.397 1.398h-.001q.044.06.098.115l3.85 3.85a1 1 0 0 0 1.415-1.414l-3.85-3.85a1 1 0 0 0-.115-.1zM12 6.5a5.5 5.5 0 1 1-11 0 5.5 5.5 0 0 1 11 0"></path></symbol>
  <symbol id="icon-process-cogs" viewBox="-4.50 0.87 99.00 88.26"><path d="M 33.668 84.632 c -0.712 0 -1.423 -0.141 -2.1 -0.421 c -1.356 -0.562 -2.411 -1.618 -2.971 -2.973 c -0.062 -0.148 -0.251 -0.605 -0.909 -0.605 c -0.657 0 -0.846 0.457 -0.908 0.606 c -1.161 2.797 -4.376 4.13 -7.172 2.972 l -5.486 -2.272 c -1.353 -0.561 -2.409 -1.615 -2.97 -2.971 c -0.562 -1.353 -0.562 -2.845 -0.001 -4.2 c 0.063 -0.151 0.252 -0.609 -0.212 -1.074 c -0.308 -0.308 -0.668 -0.379 -1.071 -0.213 c -2.795 1.158 -6.013 -0.174 -7.173 -2.969 l -2.273 -5.487 c -0.562 -1.354 -0.562 -2.848 0 -4.202 c 0.562 -1.355 1.617 -2.41 2.972 -2.97 C 3.795 57.686 4 57.381 3.999 56.945 c 0 -0.659 -0.457 -0.849 -0.607 -0.911 H 3.389 c -2.794 -1.159 -4.126 -4.376 -2.969 -7.171 l 2.273 -5.486 c 1.159 -2.794 4.376 -4.126 7.169 -2.972 c 0.153 0.063 0.61 0.253 1.077 -0.213 c 0.308 -0.308 0.379 -0.668 0.212 -1.071 c -1.158 -2.795 0.174 -6.012 2.968 -7.171 l 5.489 -2.273 c 2.796 -1.157 6.012 0.176 7.17 2.968 c 0.063 0.152 0.252 0.61 0.91 0.61 c 0.658 0 0.848 -0.458 0.91 -0.608 c 0.56 -1.354 1.615 -2.409 2.971 -2.97 c 1.339 -0.556 2.855 -0.557 4.2 0 l 5.486 2.272 c 2.797 1.16 4.129 4.377 2.971 7.172 c -0.062 0.15 -0.251 0.607 0.213 1.072 c 0.309 0.308 0.67 0.382 1.074 0.213 c 1.354 -0.561 2.845 -0.56 4.2 0 s 2.41 1.616 2.971 2.972 l 2.272 5.484 c 1.158 2.795 -0.174 6.012 -2.969 7.172 c -0.151 0.063 -0.609 0.252 -0.609 0.909 c 0 0.658 0.457 0.848 0.607 0.91 c 1.354 0.561 2.41 1.616 2.971 2.971 c 0.562 1.355 0.561 2.847 0 4.201 l -2.272 5.485 c -0.561 1.353 -1.615 2.409 -2.971 2.971 c -1.353 0.561 -2.846 0.561 -4.201 0 c -0.152 -0.062 -0.607 -0.253 -1.072 0.212 c -0.466 0.467 -0.276 0.925 -0.214 1.075 c 0.562 1.353 0.561 2.846 0 4.2 c -0.562 1.355 -1.617 2.41 -2.972 2.971 l -5.483 2.272 C 35.092 84.491 34.38 84.632 33.668 84.632 z M 27.688 76.633 c 1.61 0 3.665 0.808 4.605 3.075 c 0.155 0.374 0.434 0.653 0.808 0.808 c 0.372 0.154 0.766 0.155 1.14 -0.001 l 5.483 -2.271 c 0.374 -0.154 0.652 -0.434 0.807 -0.807 c 0.154 -0.372 0.154 -0.767 0 -1.139 c -0.939 -2.268 -0.058 -4.293 1.08 -5.431 c 1.137 -1.141 3.162 -2.023 5.432 -1.081 c 0.371 0.154 0.766 0.154 1.14 0 c 0.373 -0.154 0.652 -0.434 0.807 -0.806 l 2.272 -5.486 c 0.154 -0.372 0.154 -0.767 0 -1.141 c -0.154 -0.372 -0.433 -0.65 -0.806 -0.805 c -2.268 -0.939 -3.077 -2.995 -3.077 -4.605 s 0.809 -3.665 3.078 -4.604 c 0.757 -0.314 1.119 -1.187 0.805 -1.945 l -2.272 -5.485 c -0.154 -0.374 -0.433 -0.652 -0.806 -0.806 c -0.373 -0.155 -0.767 -0.155 -1.14 0 c -2.268 0.937 -4.295 0.057 -5.432 -1.081 c -1.139 -1.138 -2.02 -3.163 -1.081 -5.431 c 0.314 -0.758 -0.047 -1.631 -0.807 -1.946 l -5.485 -2.272 c -0.368 -0.152 -0.771 -0.152 -1.138 0 c -0.375 0.155 -0.653 0.433 -0.807 0.805 c -0.94 2.269 -2.996 3.078 -4.605 3.078 c -1.61 0 -3.666 -0.809 -4.605 -3.078 c -0.315 -0.757 -1.189 -1.117 -1.946 -0.804 l -5.486 2.272 c -0.757 0.314 -1.118 1.187 -0.804 1.946 c 0.94 2.27 0.058 4.294 -1.082 5.432 c -1.139 1.138 -3.165 2.019 -5.432 1.08 c -0.756 -0.312 -1.63 0.049 -1.946 0.808 l -2.272 5.484 c -0.314 0.758 0.047 1.631 0.806 1.945 c 2.269 0.939 3.078 2.994 3.078 4.604 C 8 58.551 7.193 60.608 4.923 61.548 c -0.374 0.154 -0.652 0.434 -0.807 0.807 c -0.154 0.372 -0.154 0.766 0 1.139 l 2.272 5.486 c 0.315 0.758 1.188 1.121 1.947 0.806 c 2.27 -0.942 4.296 -0.059 5.433 1.082 c 1.136 1.137 2.018 3.161 1.078 5.431 c -0.154 0.372 -0.154 0.766 0 1.138 c 0.155 0.374 0.434 0.653 0.806 0.808 l 5.486 2.272 c 0.755 0.312 1.63 -0.049 1.946 -0.808 C 24.023 77.442 26.078 76.633 27.688 76.633 z M 27.688 69.398 c -6.867 0 -12.454 -5.587 -12.454 -12.455 c 0 -6.867 5.587 -12.454 12.454 -12.454 s 12.454 5.587 12.454 12.454 C 40.142 63.811 34.555 69.398 27.688 69.398 z M 27.688 48.489 c -4.662 0 -8.454 3.793 -8.454 8.454 c 0 4.662 3.792 8.455 8.454 8.455 s 8.454 -3.793 8.454 -8.455 C 36.142 52.282 32.35 48.489 27.688 48.489 z M 72.091 45.512 c -0.578 0 -1.156 -0.114 -1.706 -0.342 c -1.098 -0.455 -1.953 -1.311 -2.408 -2.411 l -0.096 -0.061 l -0.089 0.063 c -0.941 2.267 -3.552 3.347 -5.818 2.41 l -3.86 -1.599 c -1.099 -0.455 -1.954 -1.311 -2.41 -2.411 c -0.455 -1.097 -0.456 -2.307 -0.002 -3.406 l -0.021 -0.112 l -0.106 -0.021 c -2.268 0.941 -4.879 -0.141 -5.819 -2.408 l -1.6 -3.862 c -0.456 -1.1 -0.455 -2.31 0 -3.409 c 0.456 -1.1 1.311 -1.956 2.411 -2.411 l 0.061 -0.096 l 0.704 -1.935 l -0.766 1.847 c -2.268 -0.938 -3.35 -3.549 -2.412 -5.818 l 1.6 -3.861 c 0.942 -2.266 3.553 -3.347 5.818 -2.412 l 0.111 -0.021 l 1.869 -0.873 l -1.848 0.767 c -0.455 -1.099 -0.455 -2.309 0 -3.409 s 1.311 -1.956 2.409 -2.412 l 3.86 -1.599 c 2.268 -0.937 4.878 0.144 5.819 2.409 l 0.096 0.063 l 0.089 -0.062 c 0.455 -1.099 1.311 -1.955 2.41 -2.41 c 1.089 -0.451 2.317 -0.451 3.408 -0.001 l 3.861 1.6 c 2.268 0.941 3.35 3.552 2.41 5.82 l 0.025 0.112 l 0.87 1.866 l -0.765 -1.848 c 1.098 -0.454 2.309 -0.454 3.408 0 c 1.1 0.456 1.956 1.312 2.411 2.412 l 1.599 3.858 c 0.939 2.269 -0.142 4.879 -2.41 5.82 l -0.063 0.096 l -0.704 1.936 l 0.764 -1.849 c 1.101 0.455 1.958 1.311 2.413 2.413 c 0.455 1.098 0.456 2.309 0 3.409 l -1.599 3.859 c -0.456 1.099 -1.311 1.955 -2.41 2.411 c -1.102 0.455 -2.311 0.455 -3.409 0 l -0.11 0.022 l -1.868 0.873 l 1.848 -0.766 c 0.455 1.099 0.456 2.31 0 3.409 c -0.456 1.101 -1.312 1.957 -2.413 2.412 l -3.856 1.598 C 73.246 45.398 72.668 45.512 72.091 45.512 z M 67.884 38.698 c 1.324 0 3.016 0.665 3.788 2.53 c 0.048 0.116 0.131 0.199 0.246 0.247 c 0.117 0.049 0.234 0.048 0.35 0 l 3.856 -1.598 c 0.117 -0.048 0.199 -0.131 0.247 -0.246 c 0.048 -0.116 0.048 -0.232 0 -0.348 c -0.772 -1.866 -0.048 -3.532 0.889 -4.468 c 0.936 -0.937 2.604 -1.662 4.468 -0.889 c 0.117 0.048 0.234 0.047 0.35 -0.001 c 0.113 -0.047 0.196 -0.13 0.244 -0.246 l 1.599 -3.858 c 0.048 -0.115 0.048 -0.232 0 -0.348 c -0.048 -0.116 -0.13 -0.198 -0.245 -0.246 c -1.867 -0.774 -2.532 -2.464 -2.532 -3.788 s 0.665 -3.014 2.531 -3.788 c 0.228 -0.094 0.34 -0.366 0.246 -0.593 L 82.321 17.2 c -0.048 -0.116 -0.131 -0.199 -0.246 -0.247 c -0.113 -0.046 -0.229 -0.049 -0.349 0 c -1.872 0.774 -3.533 0.046 -4.469 -0.891 c -0.935 -0.937 -1.659 -2.602 -0.887 -4.466 c 0.096 -0.232 -0.015 -0.499 -0.247 -0.595 l -3.858 -1.599 c -0.111 -0.046 -0.234 -0.047 -0.348 0 c -0.115 0.048 -0.198 0.131 -0.246 0.246 c -0.772 1.866 -2.463 2.531 -3.787 2.531 c -1.323 0 -3.014 -0.665 -3.788 -2.531 c -0.096 -0.23 -0.363 -0.343 -0.595 -0.245 l -3.858 1.598 c -0.143 0.059 -0.212 0.166 -0.244 0.246 c -0.033 0.08 -0.061 0.205 -0.001 0.346 c 0.772 1.87 0.046 3.535 -0.891 4.47 c -0.934 0.935 -2.598 1.663 -4.468 0.886 c -0.232 -0.096 -0.497 0.017 -0.594 0.25 l -1.598 3.857 c -0.096 0.23 0.015 0.498 0.245 0.593 h 0.001 c 1.866 0.773 2.531 2.463 2.531 3.788 s -0.665 3.015 -2.53 3.788 c -0.115 0.048 -0.198 0.13 -0.246 0.246 c -0.048 0.116 -0.048 0.232 0 0.348 l 1.599 3.86 c 0.096 0.23 0.361 0.342 0.594 0.245 c 1.872 -0.776 3.536 -0.047 4.472 0.893 c 0.932 0.927 1.658 2.593 0.884 4.463 c -0.047 0.114 -0.047 0.232 0.001 0.348 c 0.048 0.116 0.131 0.199 0.245 0.246 l 3.86 1.599 c 0.228 0.095 0.498 -0.016 0.595 -0.249 C 64.871 39.363 66.561 38.698 67.884 38.698 z M 67.885 34.794 c -5.158 0 -9.354 -4.196 -9.354 -9.354 s 4.196 -9.354 9.354 -9.354 c 5.158 0 9.354 4.196 9.354 9.354 S 73.043 34.794 67.885 34.794 z M 67.885 20.086 c -2.952 0 -5.354 2.402 -5.354 5.354 s 2.402 5.354 5.354 5.354 s 5.354 -2.402 5.354 -5.354 S 70.837 20.086 67.885 20.086 z M 77.103 81.242 c -0.509 0 -1.019 -0.101 -1.503 -0.302 c -0.752 -0.312 -1.375 -0.836 -1.804 -1.507 c -1.008 1.569 -3.029 2.245 -4.808 1.507 l -3.035 -1.257 c -0.968 -0.399 -1.725 -1.155 -2.126 -2.127 c -0.311 -0.752 -0.381 -1.562 -0.21 -2.34 c -1.826 0.397 -3.728 -0.555 -4.466 -2.335 l -1.257 -3.033 c -0.402 -0.971 -0.401 -2.039 0 -3.009 c 0.311 -0.75 0.835 -1.373 1.507 -1.802 c -1.568 -1.007 -2.244 -3.027 -1.508 -4.809 l 1.258 -3.034 c 0.737 -1.78 2.644 -2.733 4.467 -2.335 c -0.396 -1.821 0.554 -3.727 2.333 -4.467 l 3.037 -1.257 c 1.779 -0.739 3.801 -0.063 4.808 1.506 c 0.428 -0.67 1.051 -1.194 1.805 -1.506 c 0.953 -0.397 2.037 -0.398 3.001 -0.003 l 3.038 1.259 c 1.782 0.739 2.733 2.646 2.336 4.467 c 0.776 -0.17 1.59 -0.103 2.342 0.21 c 0.968 0.4 1.723 1.155 2.125 2.125 l 1.257 3.034 c 0.737 1.781 0.062 3.803 -1.507 4.81 c 0.672 0.429 1.196 1.052 1.507 1.804 c 0.401 0.97 0.401 2.037 -0.001 3.008 l -1.256 3.031 c -0.402 0.972 -1.157 1.727 -2.127 2.127 c -0.751 0.312 -1.561 0.384 -2.34 0.21 c 0.172 0.78 0.101 1.591 -0.21 2.341 c -0.401 0.969 -1.157 1.725 -2.127 2.126 l -3.031 1.256 C 78.122 81.142 77.612 81.242 77.103 81.242 z M 73.796 75.03 c 1.18 0 2.685 0.592 3.372 2.253 l 2.94 -1.294 c -0.728 -1.574 -0.079 -3.057 0.758 -3.89 c 0.818 -0.82 2.273 -1.459 3.907 -0.813 l 1.229 -2.968 c -1.623 -0.597 -2.215 -2.102 -2.215 -3.28 c 0 -1.163 0.576 -2.643 2.188 -3.345 l -1.229 -2.968 c -1.575 0.728 -3.057 0.079 -3.889 -0.758 c -0.829 -0.824 -1.478 -2.307 -0.789 -3.972 l -2.927 -1.14 c -0.7 1.612 -2.183 2.189 -3.347 2.189 c -1.163 0 -2.643 -0.576 -3.344 -2.187 l -2.904 1.202 c 0.646 1.639 0.005 3.094 -0.821 3.915 c -0.825 0.828 -2.306 1.479 -3.973 0.788 l -1.14 2.93 c 1.612 0.699 2.189 2.181 2.189 3.345 c 0.004 1.158 -0.569 2.642 -2.187 3.345 l 1.203 2.903 c 1.631 -0.644 3.089 -0.007 3.911 0.817 c 0.822 0.817 1.464 2.272 0.818 3.912 l 2.902 1.202 C 71.152 75.607 72.633 75.03 73.796 75.03 z M 67.523 76.081 C 67.522 76.081 67.522 76.081 67.523 76.081 L 67.523 76.081 z M 60.02 65.362 L 60.02 65.362 l 0.766 -1.848 L 60.02 65.362 z M 77.075 52.831 l -0.001 0.002 l 0.003 -0.001 L 77.075 52.831 z M 73.796 72.819 c -4.289 0 -7.779 -3.49 -7.779 -7.78 c 0 -4.29 3.49 -7.78 7.779 -7.78 c 4.29 0 7.78 3.49 7.78 7.78 C 81.576 69.328 78.086 72.819 73.796 72.819 z M 73.796 61.258 c -2.084 0 -3.779 1.696 -3.779 3.78 c 0 2.084 1.695 3.78 3.779 3.78 s 3.78 -1.696 3.78 -3.78 C 77.576 62.955 75.88 61.258 73.796 61.258 z 

" fill="currentColor" stroke-linecap="round" stroke-linejoin="round" stroke="currentColor" stroke-width="0.5"></path></symbol>
  <symbol id="icon-process" viewBox="7.12 -11.24 241.46 278.19"><g fill="currentColor" transform="translate(1.4065934065934016 1.4065934065934016) scale(2.81 2.81)"><path fill="currentColor" stroke="currentColor" stroke-width="2" stroke-linecap="round" stroke-linejoin="round" d="M 56.445 21.535 H 33.555 c -4.447 0 -8.064 -3.618 -8.064 -8.064 V 8.064 C 25.49 3.618 29.108 0 33.555 0 h 22.891 c 4.446 0 8.064 3.618 8.064 8.064 v 5.407 C 64.51 17.917 60.892 21.535 56.445 21.535 z M 33.555 2 c -3.344 0 -6.064 2.72 -6.064 6.064 v 5.407 c 0 3.344 2.721 6.064 6.064 6.064 h 22.891 c 3.344 0 6.064 -2.72 6.064 -6.064 V 8.064 C 62.51 4.72 59.789 2 56.445 2 H 33.555 z"></path><path fill="currentColor" stroke="currentColor" stroke-width="2" stroke-linecap="round" stroke-linejoin="round" d="M 56.445 55.768 H 33.555 c -4.447 0 -8.064 -3.618 -8.064 -8.064 v -5.407 c 0 -4.446 3.618 -8.064 8.064 -8.064 h 22.891 c 4.446 0 8.064 3.618 8.064 8.064 v 5.407 C 64.51 52.149 60.892 55.768 56.445 55.768 z M 33.555 36.232 c -3.344 0 -6.064 2.72 -6.064 6.064 v 5.407 c 0 3.344 2.721 6.064 6.064 6.064 h 22.891 c 3.344 0 6.064 -2.721 6.064 -6.064 v -5.407 c 0 -3.344 -2.721 -6.064 -6.064 -6.064 H 33.555 z"></path><path fill="currentColor" stroke="currentColor" stroke-width="2" stroke-linecap="round" stroke-linejoin="round" d="M 56.445 90 H 33.555 c -4.447 0 -8.064 -3.618 -8.064 -8.064 v -5.406 c 0 -4.446 3.618 -8.064 8.064 -8.064 h 22.891 c 4.446 0 8.064 3.618 8.064 8.064 v 5.406 C 64.51 86.382 60.892 90 56.445 90 z M 33.555 70.465 c -3.344 0 -6.064 2.721 -6.064 6.064 v 5.406 c 0 3.344 2.721 6.064 6.064 6.064 h 22.891 c 3.344 0 6.064 -2.721 6.064 -6.064 v -5.406 c 0 -3.344 -2.721 -6.064 -6.064 -6.064 H 33.555 z"></path><path fill="currentColor" stroke="currentColor" stroke-width="2" stroke-linecap="round" stroke-linejoin="round" d="M 75.4 46 h -6.29 c -0.553 0 -1 -0.448 -1 -1 s 0.447 -1 1 -1 h 6.29 c 3.344 0 6.064 -2.72 6.064 -6.064 V 17.832 c 0 -3.344 -2.721 -6.064 -6.064 -6.064 H 63.51 c -0.553 0 -1 -0.448 -1 -1 s 0.447 -1 1 -1 H 75.4 c 4.446 0 8.064 3.618 8.064 8.064 v 20.104 C 83.465 42.382 79.847 46 75.4 46 z"></path><path fill="currentColor" stroke="currentColor" stroke-width="2" stroke-linecap="round" stroke-linejoin="round" d="M 72.334 49.224 c -0.256 0 -0.512 -0.098 -0.707 -0.293 l -3.224 -3.224 C 68.216 45.52 68.11 45.265 68.11 45 s 0.105 -0.52 0.293 -0.707 l 3.224 -3.223 c 0.391 -0.391 1.023 -0.391 1.414 0 s 0.391 1.024 0 1.414 L 70.524 45 l 2.517 2.517 c 0.391 0.391 0.391 1.023 0 1.414 C 72.846 49.126 72.59 49.224 72.334 49.224 z"></path><path fill="currentColor" stroke="currentColor" stroke-width="2" stroke-linecap="round" stroke-linejoin="round" d="M 20.89 80.232 h -6.291 c -4.446 0 -8.064 -3.618 -8.064 -8.064 V 52.064 c 0 -4.446 3.618 -8.064 8.064 -8.064 H 26.49 c 0.552 0 1 0.448 1 1 s -0.448 1 -1 1 H 14.599 c -3.344 0 -6.064 2.721 -6.064 6.064 v 20.104 c 0 3.344 2.72 6.064 6.064 6.064 h 6.291 c 0.552 0 1 0.447 1 1 S 21.442 80.232 20.89 80.232 z"></path><path fill="currentColor" stroke="currentColor" stroke-width="2" stroke-linecap="round" stroke-linejoin="round" d="M 17.667 83.456 c -0.256 0 -0.512 -0.098 -0.707 -0.293 c -0.391 -0.391 -0.391 -1.023 0 -1.414 l 2.516 -2.517 l -2.516 -2.517 c -0.391 -0.391 -0.391 -1.023 0 -1.414 s 1.023 -0.391 1.414 0 l 3.223 3.224 c 0.391 0.391 0.391 1.023 0 1.414 l -3.223 3.224 C 18.178 83.358 17.922 83.456 17.667 83.456 z"></path><path fill="currentColor" stroke="currentColor" stroke-width="2" stroke-linecap="round" stroke-linejoin="round" d="M 45 22.035 c -0.552 0 -1 -0.448 -1 -1 v -0.5 c 0 -0.552 0.448 -1 1 -1 s 1 0.448 1 1 v 0.5 C 46 21.587 45.552 22.035 45 22.035 z"></path><path fill="currentColor" stroke="currentColor" stroke-width="2" stroke-linecap="round" stroke-linejoin="round" d="M 45 31.819 c -0.552 0 -1 -0.448 -1 -1 V 29.84 c 0 -0.552 0.448 -1 1 -1 s 1 0.448 1 1 v 0.979 C 46 31.371 45.552 31.819 45 31.819 z M 45 26.927 c -0.552 0 -1 -0.448 -1 -1 v -0.979 c 0 -0.552 0.448 -1 1 -1 s 1 0.448 1 1 v 0.979 C 46 26.479 45.552 26.927 45 26.927 z"></path><path fill="currentColor" stroke="currentColor" stroke-width="2" stroke-linecap="round" stroke-linejoin="round" d="M 45 36.232 c -0.552 0 -1 -0.448 -1 -1 v -0.5 c 0 -0.552 0.448 -1 1 -1 s 1 0.448 1 1 v 0.5 C 46 35.785 45.552 36.232 45 36.232 z"></path><path fill="currentColor" stroke="currentColor" stroke-width="2" stroke-linecap="round" stroke-linejoin="round" d="M 45 56.708 c -0.552 0 -1 -0.447 -1 -1 v -0.5 c 0 -0.553 0.448 -1 1 -1 s 1 0.447 1 1 v 0.5 C 46 56.261 45.552 56.708 45 56.708 z"></path><path fill="currentColor" stroke="currentColor" stroke-width="2" stroke-linecap="round" stroke-linejoin="round" d="M 45 66.177 c -0.552 0 -1 -0.447 -1 -1 v -0.947 c 0 -0.553 0.448 -1 1 -1 s 1 0.447 1 1 v 0.947 C 46 65.729 45.552 66.177 45 66.177 z M 45 61.442 c -0.552 0 -1 -0.447 -1 -1 v -0.947 c 0 -0.553 0.448 -1 1 -1 s 1 0.447 1 1 v 0.947 C 46 60.995 45.552 61.442 45 61.442 z"></path><path fill="currentColor" stroke="currentColor" stroke-width="2" stroke-linecap="round" stroke-linejoin="round" d="M 45 70.465 c -0.552 0 -1 -0.447 -1 -1 v -0.5 c 0 -0.553 0.448 -1 1 -1 s 1 0.447 1 1 v 0.5 C 46 70.018 45.552 70.465 45 70.465 z"></path></g></symbol>
  <symbol id="icon-sheet-icon" viewBox="0 0 24 24"><path d="M 3 3 h 18 v 18 h -18 Z" fill="none" stroke="currentColor" stroke-width="2" stroke-linecap="round" stroke-linejoin="round"></path><path d="M 3 9 L 21 9" fill="none" stroke="currentColor" stroke-width="2" stroke-linecap="round" stroke-linejoin="round"></path><path d="M 3 15 L 21 15" fill="none" stroke="currentColor" stroke-width="2" stroke-linecap="round" stroke-linejoin="round"></path><path d="M 9 9 L 9 21" fill="none" stroke="currentColor" stroke-width="2" stroke-linecap="round" stroke-linejoin="round"></path><path d="M 15 9 L 15 21" fill="none" stroke="currentColor" stroke-width="2" stroke-linecap="round" stroke-linejoin="round"></path></symbol>
  <symbol id="icon-chess-knight-icon" viewBox="0 0 24 24"><path d="M5 20a2 2 0 0 1 2-2h10a2 2 0 0 1 2 2v1a1 1 0 0 1-1 1H6a1 1 0 0 1-1-1z" fill="none" stroke="currentColor" stroke-width="2" stroke-linecap="round" stroke-linejoin="round"></path><path d="M16.5 18c1-2 2.5-5 2.5-9a7 7 0 0 0-7-7H6.635a1 1 0 0 0-.768 1.64L7 5l-2.32 5.802a2 2 0 0 0 .95 2.526l2.87 1.456" fill="none" stroke="currentColor" stroke-width="2" stroke-linecap="round" stroke-linejoin="round"></path><path d="m15 5 1.425-1.425" fill="none" stroke="currentColor" stroke-width="2" stroke-linecap="round" stroke-linejoin="round"></path><path d="m17 8 1.53-1.53" fill="none" stroke="currentColor" stroke-width="2" stroke-linecap="round" stroke-linejoin="round"></path><path d="M9.713 12.185 7 18" fill="none" stroke="currentColor" stroke-width="2" stroke-linecap="round" stroke-linejoin="round"></path></symbol>
  <symbol id="icon-chess-pawn-icon" viewBox="0 0 24 24"><path d="M5 20a2 2 0 0 1 2-2h10a2 2 0 0 1 2 2v1a1 1 0 0 1-1 1H6a1 1 0 0 1-1-1z" fill="none" stroke="currentColor" stroke-width="2" stroke-linecap="round" stroke-linejoin="round"></path><path d="m14.5 10 1.5 8" fill="none" stroke="currentColor" stroke-width="2" stroke-linecap="round" stroke-linejoin="round"></path><path d="M7 10h10" fill="none" stroke="currentColor" stroke-width="2" stroke-linecap="round" stroke-linejoin="round"></path><path d="m8 18 1.5-8" fill="none" stroke="currentColor" stroke-width="2" stroke-linecap="round" stroke-linejoin="round"></path><path d="M 12 2 a 4 4 0 1 0 0 8 a 4 4 0 1 0 0 -8" fill="none" stroke="currentColor" stroke-width="2" stroke-linecap="round" stroke-linejoin="round"></path></symbol>
  <symbol id="icon-chess-rook-icon" viewBox="0 0 24 24"><path d="M5 20a2 2 0 0 1 2-2h10a2 2 0 0 1 2 2v1a1 1 0 0 1-1 1H6a1 1 0 0 1-1-1z" fill="none" stroke="currentColor" stroke-width="2" stroke-linecap="round" stroke-linejoin="round"></path><path d="M10 2v2" fill="none" stroke="currentColor" stroke-width="2" stroke-linecap="round" stroke-linejoin="round"></path><path d="M14 2v2" fill="none" stroke="currentColor" stroke-width="2" stroke-linecap="round" stroke-linejoin="round"></path><path d="m17 18-1-9" fill="none" stroke="currentColor" stroke-width="2" stroke-linecap="round" stroke-linejoin="round"></path><path d="M6 2v5a2 2 0 0 0 2 2h8a2 2 0 0 0 2-2V2" fill="none" stroke="currentColor" stroke-width="2" stroke-linecap="round" stroke-linejoin="round"></path><path d="M6 4h12" fill="none" stroke="currentColor" stroke-width="2" stroke-linecap="round" stroke-linejoin="round"></path><path d="m7 18 1-9" fill="none" stroke="currentColor" stroke-width="2" stroke-linecap="round" stroke-linejoin="round"></path></symbol>
  <symbol id="icon-traffic-cone-icon" viewBox="0 0 24 24"><path d="M16.05 10.966a5 2.5 0 0 1-8.1 0" fill="none" stroke="currentColor" stroke-width="2" stroke-linecap="round" stroke-linejoin="round"></path><path d="m16.923 14.049 4.48 2.04a1 1 0 0 1 .001 1.831l-8.574 3.9a2 2 0 0 1-1.66 0l-8.574-3.91a1 1 0 0 1 0-1.83l4.484-2.04" fill="none" stroke="currentColor" stroke-width="2" stroke-linecap="round" stroke-linejoin="round"></path><path d="M16.949 14.14a5 2.5 0 1 1-9.9 0L10.063 3.5a2 2 0 0 1 3.874 0z" fill="none" stroke="currentColor" stroke-width="2" stroke-linecap="round" stroke-linejoin="round"></path><path d="M9.194 6.57a5 2.5 0 0 0 5.61 0" fill="none" stroke="currentColor" stroke-width="2" stroke-linecap="round" stroke-linejoin="round"></path></symbol>
  <symbol id="icon-printer-icon" viewBox="0 0 24 24"><path d="M6 18H4a2 2 0 0 1-2-2v-5a2 2 0 0 1 2-2h16a2 2 0 0 1 2 2v5a2 2 0 0 1-2 2h-2" fill="none" stroke="currentColor" stroke-width="2" stroke-linecap="round" stroke-linejoin="round"></path><path d="M6 9V3a1 1 0 0 1 1-1h10a1 1 0 0 1 1 1v6" fill="none" stroke="currentColor" stroke-width="2" stroke-linecap="round" stroke-linejoin="round"></path><path d="M 6 14 h 12 v 8 h -12 Z" fill="none" stroke="currentColor" stroke-width="2" stroke-linecap="round" stroke-linejoin="round"></path></symbol>
  <symbol id="icon-kanban" viewBox="0 0 24 24"><path d="M0 0h24v24H0z" fill="none" stroke="currentColor" stroke-width="2" stroke-linecap="round" stroke-linejoin="round"></path><path d="M4 4l6 0" fill="none" stroke="currentColor" stroke-width="2" stroke-linecap="round" stroke-linejoin="round"></path><path d="M14 4l6 0" fill="none" stroke="currentColor" stroke-width="2" stroke-linecap="round" stroke-linejoin="round"></path><path d="M4 10a2 2 0 0 1 2 -2h2a2 2 0 0 1 2 2v8a2 2 0 0 1 -2 2h-2a2 2 0 0 1 -2 -2l0 -8" fill="none" stroke="currentColor" stroke-width="2" stroke-linecap="round" stroke-linejoin="round"></path><path d="M14 10a2 2 0 0 1 2 -2h2a2 2 0 0 1 2 2v2a2 2 0 0 1 -2 2h-2a2 2 0 0 1 -2 -2l0 -2" fill="none" stroke="currentColor" stroke-width="2" stroke-linecap="round" stroke-linejoin="round"></path></symbol>
  <symbol id="icon-chart-gantt-icon" viewBox="0 0 24 24"><path d="M10 6h8" fill="none" stroke="currentColor" stroke-width="2" stroke-linecap="round" stroke-linejoin="round"></path><path d="M12 16h6" fill="none" stroke="currentColor" stroke-width="2" stroke-linecap="round" stroke-linejoin="round"></path><path d="M3 3v16a2 2 0 0 0 2 2h16" fill="none" stroke="currentColor" stroke-width="2" stroke-linecap="round" stroke-linejoin="round"></path><path d="M8 11h7" fill="none" stroke="currentColor" stroke-width="2" stroke-linecap="round" stroke-linejoin="round"></path></symbol>
  <symbol id="icon-land-plot-icon" viewBox="0 0 24 24"><path d="m12 8 6-3-6-3v10" fill="none" stroke="currentColor" stroke-width="2" stroke-linecap="round" stroke-linejoin="round"></path><path d="m8 11.99-5.5 3.14a1 1 0 0 0 0 1.74l8.5 4.86a2 2 0 0 0 2 0l8.5-4.86a1 1 0 0 0 0-1.74L16 12" fill="none" stroke="currentColor" stroke-width="2" stroke-linecap="round" stroke-linejoin="round"></path><path d="m6.49 12.85 11.02 6.3" fill="none" stroke="currentColor" stroke-width="2" stroke-linecap="round" stroke-linejoin="round"></path><path d="M17.51 12.85 6.5 19.15" fill="none" stroke="currentColor" stroke-width="2" stroke-linecap="round" stroke-linejoin="round"></path></symbol>
  <symbol id="icon-landmark-icon" viewBox="0 0 24 24"><path d="M10 18v-7" fill="none" stroke="currentColor" stroke-width="2" stroke-linecap="round" stroke-linejoin="round"></path><path d="M11.119 2.205a2 2 0 0 1 1.762 0l7.84 3.846A.5.5 0 0 1 20.5 7h-17a.5.5 0 0 1-.22-.949z" fill="none" stroke="currentColor" stroke-width="2" stroke-linecap="round" stroke-linejoin="round"></path><path d="M14 18v-7" fill="none" stroke="currentColor" stroke-width="2" stroke-linecap="round" stroke-linejoin="round"></path><path d="M18 18v-7" fill="none" stroke="currentColor" stroke-width="2" stroke-linecap="round" stroke-linejoin="round"></path><path d="M3 22h18" fill="none" stroke="currentColor" stroke-width="2" stroke-linecap="round" stroke-linejoin="round"></path><path d="M6 18v-7" fill="none" stroke="currentColor" stroke-width="2" stroke-linecap="round" stroke-linejoin="round"></path></symbol>
  <symbol id="icon-calculator-icon" viewBox="0 0 24 24"><path d="M 4 2 h 16 v 20 h -16 Z" fill="none" stroke="currentColor" stroke-width="2" stroke-linecap="round" stroke-linejoin="round"></path><path d="M 8 6 L 16 6" fill="none" stroke="currentColor" stroke-width="2" stroke-linecap="round" stroke-linejoin="round"></path><path d="M 16 14 L 16 18" fill="none" stroke="currentColor" stroke-width="2" stroke-linecap="round" stroke-linejoin="round"></path><path d="M16 10h.01" fill="none" stroke="currentColor" stroke-width="2" stroke-linecap="round" stroke-linejoin="round"></path><path d="M12 10h.01" fill="none" stroke="currentColor" stroke-width="2" stroke-linecap="round" stroke-linejoin="round"></path><path d="M8 10h.01" fill="none" stroke="currentColor" stroke-width="2" stroke-linecap="round" stroke-linejoin="round"></path><path d="M12 14h.01" fill="none" stroke="currentColor" stroke-width="2" stroke-linecap="round" stroke-linejoin="round"></path><path d="M8 14h.01" fill="none" stroke="currentColor" stroke-width="2" stroke-linecap="round" stroke-linejoin="round"></path><path d="M12 18h.01" fill="none" stroke="currentColor" stroke-width="2" stroke-linecap="round" stroke-linejoin="round"></path><path d="M8 18h.01" fill="none" stroke="currentColor" stroke-width="2" stroke-linecap="round" stroke-linejoin="round"></path></symbol>
  <symbol id="icon-tools2" viewBox="0 0 24 24"><path d="M0 0h24v24H0z" fill="none" stroke="currentColor" stroke-width="2" stroke-linecap="round" stroke-linejoin="round"></path><path d="M3 21h4l13 -13a1.5 1.5 0 0 0 -4 -4l-13 13v4" fill="none" stroke="currentColor" stroke-width="2" stroke-linecap="round" stroke-linejoin="round"></path><path d="M14.5 5.5l4 4" fill="none" stroke="currentColor" stroke-width="2" stroke-linecap="round" stroke-linejoin="round"></path><path d="M12 8l-5 -5l-4 4l5 5" fill="none" stroke="currentColor" stroke-width="2" stroke-linecap="round" stroke-linejoin="round"></path><path d="M7 8l-1.5 1.5" fill="none" stroke="currentColor" stroke-width="2" stroke-linecap="round" stroke-linejoin="round"></path><path d="M16 12l5 5l-4 4l-5 -5" fill="none" stroke="currentColor" stroke-width="2" stroke-linecap="round" stroke-linejoin="round"></path><path d="M16 17l-1.5 1.5" fill="none" stroke="currentColor" stroke-width="2" stroke-linecap="round" stroke-linejoin="round"></path></symbol>
  <symbol id="icon-tool-case-icon" viewBox="0 0 24 24"><path d="M10 15h4" fill="none" stroke="currentColor" stroke-width="2" stroke-linecap="round" stroke-linejoin="round"></path><path d="m14.817 10.995-.971-1.45 1.034-1.232a2 2 0 0 0-2.025-3.238l-1.82.364L9.91 3.885a2 2 0 0 0-3.625.748L6.141 6.55l-1.725.426a2 2 0 0 0-.19 3.756l.657.27" fill="none" stroke="currentColor" stroke-width="2" stroke-linecap="round" stroke-linejoin="round"></path><path d="m18.822 10.995 2.26-5.38a1 1 0 0 0-.557-1.318L16.954 2.9a1 1 0 0 0-1.281.533l-.924 2.122" fill="none" stroke="currentColor" stroke-width="2" stroke-linecap="round" stroke-linejoin="round"></path><path d="M4 12.006A1 1 0 0 1 4.994 11H19a1 1 0 0 1 1 1v7a2 2 0 0 1-2 2H6a2 2 0 0 1-2-2z" fill="none" stroke="currentColor" stroke-width="2" stroke-linecap="round" stroke-linejoin="round"></path></symbol>
  <symbol id="icon-pocket-knife-icon" viewBox="0 0 24 24"><path d="M3 2v1c0 1 2 1 2 2S3 6 3 7s2 1 2 2-2 1-2 2 2 1 2 2" fill="none" stroke="currentColor" stroke-width="2" stroke-linecap="round" stroke-linejoin="round"></path><path d="M18 6h.01" fill="none" stroke="currentColor" stroke-width="2" stroke-linecap="round" stroke-linejoin="round"></path><path d="M6 18h.01" fill="none" stroke="currentColor" stroke-width="2" stroke-linecap="round" stroke-linejoin="round"></path><path d="M20.83 8.83a4 4 0 0 0-5.66-5.66l-12 12a4 4 0 1 0 5.66 5.66Z" fill="none" stroke="currentColor" stroke-width="2" stroke-linecap="round" stroke-linejoin="round"></path><path d="M18 11.66V22a4 4 0 0 0 4-4V6" fill="none" stroke="currentColor" stroke-width="2" stroke-linecap="round" stroke-linejoin="round"></path></symbol>
  <symbol id="icon-shovel-icon" viewBox="0 0 24 24"><path d="M21.56 4.56a1.5 1.5 0 0 1 0 2.122l-.47.47a3 3 0 0 1-4.212-.03 3 3 0 0 1 0-4.243l.44-.44a1.5 1.5 0 0 1 2.121 0z" fill="none" stroke="currentColor" stroke-width="2" stroke-linecap="round" stroke-linejoin="round"></path><path d="M3 22a1 1 0 0 1-1-1v-3.586a1 1 0 0 1 .293-.707l3.355-3.355a1.205 1.205 0 0 1 1.704 0l3.296 3.296a1.205 1.205 0 0 1 0 1.704l-3.355 3.355a1 1 0 0 1-.707.293z" fill="none" stroke="currentColor" stroke-width="2" stroke-linecap="round" stroke-linejoin="round"></path><path d="m9 15 7.879-7.878" fill="none" stroke="currentColor" stroke-width="2" stroke-linecap="round" stroke-linejoin="round"></path></symbol>
  <symbol id="icon-crosshair-icon" viewBox="0 0 24 24"><path d="M 12 2 a 10 10 0 1 0 0 20 a 10 10 0 1 0 0 -20" fill="none" stroke="currentColor" stroke-width="2" stroke-linecap="round" stroke-linejoin="round"></path><path d="M 22 12 L 18 12" fill="none" stroke="currentColor" stroke-width="2" stroke-linecap="round" stroke-linejoin="round"></path><path d="M 6 12 L 2 12" fill="none" stroke="currentColor" stroke-width="2" stroke-linecap="round" stroke-linejoin="round"></path><path d="M 12 6 L 12 2" fill="none" stroke="currentColor" stroke-width="2" stroke-linecap="round" stroke-linejoin="round"></path><path d="M 12 22 L 12 18" fill="none" stroke="currentColor" stroke-width="2" stroke-linecap="round" stroke-linejoin="round"></path></symbol>
  <symbol id="icon-target-arrow" viewBox="0 0 24 24"><path d="M11 12a1 1 0 1 0 2 0a1 1 0 1 0 -2 0 M12 7a5 5 0 1 0 5 5 M13 3.055a9 9 0 1 0 7.941 7.945 M15 6v3h3l3 -3h-3v-3l-3 3 M15 9l-3 3" fill="none" stroke="currentColor" stroke-width="2" stroke-linecap="round" stroke-linejoin="round"></path></symbol>
  <symbol id="icon-backhoe" viewBox="0 0 24 24"><path d="M2 17a2 2 0 1 0 4 0a2 2 0 1 0 -4 0 M11 17a2 2 0 1 0 4 0a2 2 0 1 0 -4 0 M13 19l-9 0 M4 15l9 0 M8 12v-5h2a3 3 0 0 1 3 3v5 M5 15v-2a1 1 0 0 1 1 -1h7 M21.12 9.88l-3.12 -4.88l-5 5 M21.12 9.88a3 3 0 0 1 -2.12 5.12a3 3 0 0 1 -2.12 -.88l4.24 -4.24" fill="none" stroke="currentColor" stroke-width="1.8" stroke-linecap="round" stroke-linejoin="round"></path></symbol>
  <symbol id="icon-bulldozer" viewBox="0 0 24 24"><path d="M2 17a2 2 0 1 0 4 0a2 2 0 0 0 -4 0 M12 17a2 2 0 1 0 4 0a2 2 0 0 0 -4 0 M19 13v4a2 2 0 0 0 2 2h1 M14 19h-10 M4 15h10 M9 11v-5h2a3 3 0 0 1 3 3v6 M5 15v-3a1 1 0 0 1 1 -1h8 M19 17h-3" fill="none" stroke="currentColor" stroke-width="1.8" stroke-linecap="round" stroke-linejoin="round"></path></symbol>
  <symbol id="icon-CompassRose" viewBox="-12.74 -12.74 281.59 281.59"><path d="M249.94,120.24l-27.05-6.76a95.86,95.86,0,0,0-80.37-80.37l-6.76-27a8,8,0,0,0-15.52,0l-6.76,27.05a95.86,95.86,0,0,0-80.37,80.37l-27,6.76a8,8,0,0,0,0,15.52l27.05,6.76a95.86,95.86,0,0,0,80.37,80.37l6.76,27.05a8,8,0,0,0,15.52,0l6.76-27.05a95.86,95.86,0,0,0,80.37-80.37l27.05-6.76a8,8,0,0,0,0-15.52Zm-95.49,22.9L139.31,128l15.14-15.14L215,128Zm-52.9,0L41,128l60.57-15.14L116.69,128ZM205.77,109.2,158.6,97.4,146.8,50.23A79.88,79.88,0,0,1,205.77,109.2Zm-62.63-7.65L128,116.69l-15.14-15.14L128,41ZM109.2,50.23,97.4,97.4,50.23,109.2A79.88,79.88,0,0,1,109.2,50.23Zm-59,96.57L97.4,158.6l11.8,47.17A79.88,79.88,0,0,1,50.23,146.8Zm62.63,7.65L128,139.31l15.14,15.14L128,215Zm33.94,51.32,11.8-47.17,47.17-11.8A79.88,79.88,0,0,1,146.8,205.77Z" fill="currentColor" stroke="currentColor" stroke-width="2" stroke-linecap="round" stroke-linejoin="round"></path></symbol>
  <symbol id="icon-hard-hat" viewBox="0 0 256 256"><path d="M224,152V136a96.37,96.37,0,0,0-64-90.51V40a16,16,0,0,0-16-16H112A16,16,0,0,0,96,40v5.49A96.37,96.37,0,0,0,32,136v16a16,16,0,0,0-16,16v24a16,16,0,0,0,16,16H224a16,16,0,0,0,16-16V168A16,16,0,0,0,224,152Zm-16-16v16H160V62.67A80.36,80.36,0,0,1,208,136ZM144,40V152H112V40ZM48,136A80.36,80.36,0,0,1,96,62.67V152H48Zm176,56H32V168H224v24Z" fill="currentColor" stroke="currentColor" stroke-width="2" stroke-linecap="round" stroke-linejoin="round"></path></symbol>
  <symbol id="icon-arrow-down-icon" viewBox="0 0 24 24"><path d="M12 5v14" fill="none" stroke="currentColor" stroke-width="2" stroke-linecap="round" stroke-linejoin="round"></path><path d="m19 12-7 7-7-7" fill="none" stroke="currentColor" stroke-width="2" stroke-linecap="round" stroke-linejoin="round"></path></symbol>
  <symbol id="icon-arrow-down-left-icon" viewBox="0 0 24 24"><path d="M17 7 7 17" fill="none" stroke="currentColor" stroke-width="2" stroke-linecap="round" stroke-linejoin="round"></path><path d="M17 17H7V7" fill="none" stroke="currentColor" stroke-width="2" stroke-linecap="round" stroke-linejoin="round"></path></symbol>
  <symbol id="icon-arrow-left-icon" viewBox="0 0 24 24"><path d="m12 19-7-7 7-7" fill="none" stroke="currentColor" stroke-width="2" stroke-linecap="round" stroke-linejoin="round"></path><path d="M19 12H5" fill="none" stroke="currentColor" stroke-width="2" stroke-linecap="round" stroke-linejoin="round"></path></symbol>
  <symbol id="icon-arrow-up-left-icon" viewBox="0 0 24 24"><path d="M7 17V7h10" fill="none" stroke="currentColor" stroke-width="2" stroke-linecap="round" stroke-linejoin="round"></path><path d="M17 17 7 7" fill="none" stroke="currentColor" stroke-width="2" stroke-linecap="round" stroke-linejoin="round"></path></symbol>
  <symbol id="icon-arrow-up-icon" viewBox="0 0 24 24"><path d="m5 12 7-7 7 7" fill="none" stroke="currentColor" stroke-width="2" stroke-linecap="round" stroke-linejoin="round"></path><path d="M12 19V5" fill="none" stroke="currentColor" stroke-width="2" stroke-linecap="round" stroke-linejoin="round"></path></symbol>
  <symbol id="icon-arrow-up-right-icon" viewBox="0 0 24 24"><path d="M7 7h10v10" fill="none" stroke="currentColor" stroke-width="2" stroke-linecap="round" stroke-linejoin="round"></path><path d="M7 17 17 7" fill="none" stroke="currentColor" stroke-width="2" stroke-linecap="round" stroke-linejoin="round"></path></symbol>
  <symbol id="icon-arrow-right-icon" viewBox="0 0 24 24"><path d="M5 12h14" fill="none" stroke="currentColor" stroke-width="2" stroke-linecap="round" stroke-linejoin="round"></path><path d="m12 5 7 7-7 7" fill="none" stroke="currentColor" stroke-width="2" stroke-linecap="round" stroke-linejoin="round"></path></symbol>
  <symbol id="icon-arrow-down-right-icon" viewBox="0 0 24 24"><path d="m7 7 10 10" fill="none" stroke="currentColor" stroke-width="2" stroke-linecap="round" stroke-linejoin="round"></path><path d="M17 7v10H7" fill="none" stroke="currentColor" stroke-width="2" stroke-linecap="round" stroke-linejoin="round"></path></symbol>
  <symbol id="icon-strategy" viewBox="0 0 256 256"><path d="M76,152a36,36,0,1,0,36,36A36,36,0,0,0,76,152Zm0,56a20,20,0,1,1,20-20A20,20,0,0,1,76,208ZM42.34,106.34,56.69,92,42.34,77.66A8,8,0,0,1,53.66,66.34L68,80.69,82.34,66.34A8,8,0,0,1,93.66,77.66L79.31,92l14.35,14.34a8,8,0,0,1-11.32,11.32L68,103.31,53.66,117.66a8,8,0,0,1-11.32-11.32Zm187.32,96a8,8,0,0,1-11.32,11.32L204,199.31l-14.34,14.35a8,8,0,0,1-11.32-11.32L192.69,188l-14.35-14.34a8,8,0,0,1,11.32-11.32L204,176.69l14.34-14.35a8,8,0,0,1,11.32,11.32L215.31,188Zm-45.19-89.51c-6.18,22.33-25.32,41.63-46.53,46.93A8.13,8.13,0,0,1,136,160a8,8,0,0,1-1.93-15.76c15.63-3.91,30.35-18.91,35-35.68,3.19-11.5,3.22-29-14.71-46.9L152,59.31V80a8,8,0,0,1-16,0V40a8,8,0,0,1,8-8h40a8,8,0,0,1,0,16H163.31l2.35,2.34C183.9,68.59,190.58,90.78,184.47,112.83Z" fill="currentColor" stroke="currentColor" stroke-width="2" stroke-linecap="round" stroke-linejoin="round"></path></symbol>
  <symbol id="icon-checklist" viewBox="0 0 24 24"><path d="M0 0h24v24H0z" fill="none" stroke="currentColor" stroke-width="2" stroke-linecap="round" stroke-linejoin="round"></path><path d="M9.615 20h-2.615a2 2 0 0 1 -2 -2v-12a2 2 0 0 1 2 -2h8a2 2 0 0 1 2 2v8" fill="none" stroke="currentColor" stroke-width="2" stroke-linecap="round" stroke-linejoin="round"></path><path d="M14 19l2 2l4 -4" fill="none" stroke="currentColor" stroke-width="2" stroke-linecap="round" stroke-linejoin="round"></path><path d="M9 8h4" fill="none" stroke="currentColor" stroke-width="2" stroke-linecap="round" stroke-linejoin="round"></path><path d="M9 12h2" fill="none" stroke="currentColor" stroke-width="2" stroke-linecap="round" stroke-linejoin="round"></path></symbol>
  <symbol id="icon-risk" viewBox="0 0 24 24"><path d="M0 0h24v24H0z" fill="none" stroke="currentColor" stroke-width="2" stroke-linecap="round" stroke-linejoin="round"></path><path d="M12 9v4" fill="none" stroke="currentColor" stroke-width="2" stroke-linecap="round" stroke-linejoin="round"></path><path d="M10.363 3.591l-8.106 13.534a1.914 1.914 0 0 0 1.636 2.871h16.214a1.914 1.914 0 0 0 1.636 -2.87l-8.106 -13.536a1.914 1.914 0 0 0 -3.274 0" fill="none" stroke="currentColor" stroke-width="2" stroke-linecap="round" stroke-linejoin="round"></path><path d="M12 16h.01" fill="none" stroke="currentColor" stroke-width="2" stroke-linecap="round" stroke-linejoin="round"></path></symbol>
  <symbol id="icon-trophy-icon" viewBox="0 0 24 24"><path d="M10 14.66v1.626a2 2 0 0 1-.976 1.696A5 5 0 0 0 7 21.978" fill="none" stroke="currentColor" stroke-width="2" stroke-linecap="round" stroke-linejoin="round"></path><path d="M14 14.66v1.626a2 2 0 0 0 .976 1.696A5 5 0 0 1 17 21.978" fill="none" stroke="currentColor" stroke-width="2" stroke-linecap="round" stroke-linejoin="round"></path><path d="M18 9h1.5a1 1 0 0 0 0-5H18" fill="none" stroke="currentColor" stroke-width="2" stroke-linecap="round" stroke-linejoin="round"></path><path d="M4 22h16" fill="none" stroke="currentColor" stroke-width="2" stroke-linecap="round" stroke-linejoin="round"></path><path d="M6 9a6 6 0 0 0 12 0V3a1 1 0 0 0-1-1H7a1 1 0 0 0-1 1z" fill="none" stroke="currentColor" stroke-width="2" stroke-linecap="round" stroke-linejoin="round"></path><path d="M6 9H4.5a1 1 0 0 1 0-5H6" fill="none" stroke="currentColor" stroke-width="2" stroke-linecap="round" stroke-linejoin="round"></path></symbol>
  <symbol id="icon-activity-icon" viewBox="0 0 24 24"><path d="M22 12h-2.48a2 2 0 0 0-1.93 1.46l-2.35 8.36a.25.25 0 0 1-.48 0L9.24 2.18a.25.25 0 0 0-.48 0l-2.35 8.36A2 2 0 0 1 4.49 12H2" fill="none" stroke="currentColor" stroke-width="2" stroke-linecap="round" stroke-linejoin="round"></path></symbol>
  <symbol id="icon-flag-icon" viewBox="0 0 24 24"><path d="M4 22V4a1 1 0 0 1 .4-.8A6 6 0 0 1 8 2c3 0 5 2 7.333 2q2 0 3.067-.8A1 1 0 0 1 20 4v10a1 1 0 0 1-.4.8A6 6 0 0 1 16 16c-3 0-5-2-8-2a6 6 0 0 0-4 1.528" fill="none" stroke="currentColor" stroke-width="2" stroke-linecap="round" stroke-linejoin="round"></path></symbol>
  <symbol id="icon-user-round-icon" viewBox="0 0 24 24"><path d="M 12 3 a 5 5 0 1 0 0 10 a 5 5 0 1 0 0 -10" fill="none" stroke="currentColor" stroke-width="2" stroke-linecap="round" stroke-linejoin="round"></path><path d="M20 21a8 8 0 0 0-16 0" fill="none" stroke="currentColor" stroke-width="2" stroke-linecap="round" stroke-linejoin="round"></path></symbol>
  <symbol id="icon-shield-alert-icon" viewBox="0 0 24 24"><path d="M20 13c0 5-3.5 7.5-7.66 8.95a1 1 0 0 1-.67-.01C7.5 20.5 4 18 4 13V6a1 1 0 0 1 1-1c2 0 4.5-1.2 6.24-2.72a1.17 1.17 0 0 1 1.52 0C14.51 3.81 17 5 19 5a1 1 0 0 1 1 1z" fill="none" stroke="currentColor" stroke-width="2" stroke-linecap="round" stroke-linejoin="round"></path><path d="M12 8v4" fill="none" stroke="currentColor" stroke-width="2" stroke-linecap="round" stroke-linejoin="round"></path><path d="M12 16h.01" fill="none" stroke="currentColor" stroke-width="2" stroke-linecap="round" stroke-linejoin="round"></path></symbol>
  <symbol id="icon-life-buoy-icon" viewBox="0 0 24 24"><path d="M 12 2 a 10 10 0 1 0 0 20 a 10 10 0 1 0 0 -20" fill="none" stroke="currentColor" stroke-width="2" stroke-linecap="round" stroke-linejoin="round"></path><path d="m4.93 4.93 4.24 4.24" fill="none" stroke="currentColor" stroke-width="2" stroke-linecap="round" stroke-linejoin="round"></path><path d="m14.83 9.17 4.24-4.24" fill="none" stroke="currentColor" stroke-width="2" stroke-linecap="round" stroke-linejoin="round"></path><path d="m14.83 14.83 4.24 4.24" fill="none" stroke="currentColor" stroke-width="2" stroke-linecap="round" stroke-linejoin="round"></path><path d="m9.17 14.83-4.24 4.24" fill="none" stroke="currentColor" stroke-width="2" stroke-linecap="round" stroke-linejoin="round"></path><path d="M 12 8 a 4 4 0 1 0 0 8 a 4 4 0 1 0 0 -8" fill="none" stroke="currentColor" stroke-width="2" stroke-linecap="round" stroke-linejoin="round"></path></symbol>
  <symbol id="icon-medal-icon" viewBox="0 0 24 24"><path d="M7.21 15 2.66 7.14a2 2 0 0 1 .13-2.2L4.4 2.8A2 2 0 0 1 6 2h12a2 2 0 0 1 1.6.8l1.6 2.14a2 2 0 0 1 .14 2.2L16.79 15" fill="none" stroke="currentColor" stroke-width="2" stroke-linecap="round" stroke-linejoin="round"></path><path d="M11 12 5.12 2.2" fill="none" stroke="currentColor" stroke-width="2" stroke-linecap="round" stroke-linejoin="round"></path><path d="m13 12 5.88-9.8" fill="none" stroke="currentColor" stroke-width="2" stroke-linecap="round" stroke-linejoin="round"></path><path d="M8 7h8" fill="none" stroke="currentColor" stroke-width="2" stroke-linecap="round" stroke-linejoin="round"></path><path d="M 12 12 a 5 5 0 1 0 0 10 a 5 5 0 1 0 0 -10" fill="none" stroke="currentColor" stroke-width="2" stroke-linecap="round" stroke-linejoin="round"></path><path d="M12 18v-2h-.5" fill="none" stroke="currentColor" stroke-width="2" stroke-linecap="round" stroke-linejoin="round"></path></symbol>
  <symbol id="icon-circle-star-icon" viewBox="0 0 24 24"><path d="M 12 2 a 10 10 0 1 0 0 20 a 10 10 0 1 0 0 -20" fill="none" stroke="currentColor" stroke-width="2" stroke-linecap="round" stroke-linejoin="round"></path><path d="M11.051 7.616a1 1 0 0 1 1.909.024l.737 1.452a1 1 0 0 0 .737.535l1.634.256a1 1 0 0 1 .588 1.806l-1.172 1.168a1 1 0 0 0-.282.866l.259 1.613a1 1 0 0 1-1.541 1.134l-1.465-.75a1 1 0 0 0-.912 0l-1.465.75a1 1 0 0 1-1.539-1.133l.258-1.613a1 1 0 0 0-.282-.867l-1.156-1.152a1 1 0 0 1 .572-1.822l1.633-.256a1 1 0 0 0 .737-.535z" fill="none" stroke="currentColor" stroke-width="2" stroke-linecap="round" stroke-linejoin="round"></path></symbol>
  <symbol id="icon-package-open-icon" viewBox="0 0 24 24"><path d="M12 22v-9" fill="none" stroke="currentColor" stroke-width="2" stroke-linecap="round" stroke-linejoin="round"></path><path d="M15.17 2.21a1.67 1.67 0 0 1 1.63 0L21 4.57a1.93 1.93 0 0 1 0 3.36L8.82 14.79a1.655 1.655 0 0 1-1.64 0L3 12.43a1.93 1.93 0 0 1 0-3.36z" fill="none" stroke="currentColor" stroke-width="2" stroke-linecap="round" stroke-linejoin="round"></path><path d="M20 13v3.87a2.06 2.06 0 0 1-1.11 1.83l-6 3.08a1.93 1.93 0 0 1-1.78 0l-6-3.08A2.06 2.06 0 0 1 4 16.87V13" fill="none" stroke="currentColor" stroke-width="2" stroke-linecap="round" stroke-linejoin="round"></path><path d="M21 12.43a1.93 1.93 0 0 0 0-3.36L8.83 2.2a1.64 1.64 0 0 0-1.63 0L3 4.57a1.93 1.93 0 0 0 0 3.36l12.18 6.86a1.636 1.636 0 0 0 1.63 0z" fill="none" stroke="currentColor" stroke-width="2" stroke-linecap="round" stroke-linejoin="round"></path></symbol>
  <symbol id="icon-package-check-icon" viewBox="0 0 24 24"><path d="M12 22V12" fill="none" stroke="currentColor" stroke-width="2" stroke-linecap="round" stroke-linejoin="round"></path><path d="m16 17 2 2 4-4" fill="none" stroke="currentColor" stroke-width="2" stroke-linecap="round" stroke-linejoin="round"></path><path d="M21 11.127V8a2 2 0 0 0-1-1.73l-7-4a2 2 0 0 0-2 0l-7 4A2 2 0 0 0 3 8v8a2 2 0 0 0 1 1.729l7 4a2 2 0 0 0 2 .001l1.32-.753" fill="none" stroke="currentColor" stroke-width="2" stroke-linecap="round" stroke-linejoin="round"></path><path d="M3.29 7 12 12l8.71-5" fill="none" stroke="currentColor" stroke-width="2" stroke-linecap="round" stroke-linejoin="round"></path><path d="m7.5 4.27 8.997 5.148" fill="none" stroke="currentColor" stroke-width="2" stroke-linecap="round" stroke-linejoin="round"></path></symbol>
  <symbol id="icon-factory-icon" viewBox="0 0 24 24"><path d="M12 16h.01" fill="none" stroke="currentColor" stroke-width="2" stroke-linecap="round" stroke-linejoin="round"></path><path d="M16 16h.01" fill="none" stroke="currentColor" stroke-width="2" stroke-linecap="round" stroke-linejoin="round"></path><path d="M3 19a2 2 0 0 0 2 2h14a2 2 0 0 0 2-2V8.5a.5.5 0 0 0-.769-.422l-4.462 2.844A.5.5 0 0 1 15 10.5v-2a.5.5 0 0 0-.769-.422L9.77 10.922A.5.5 0 0 1 9 10.5V5a2 2 0 0 0-2-2H5a2 2 0 0 0-2 2z" fill="none" stroke="currentColor" stroke-width="2" stroke-linecap="round" stroke-linejoin="round"></path><path d="M8 16h.01" fill="none" stroke="currentColor" stroke-width="2" stroke-linecap="round" stroke-linejoin="round"></path></symbol>
  <symbol id="icon-ruler-icon" viewBox="0 0 24 24"><path d="M21.3 15.3a2.4 2.4 0 0 1 0 3.4l-2.6 2.6a2.4 2.4 0 0 1-3.4 0L2.7 8.7a2.41 2.41 0 0 1 0-3.4l2.6-2.6a2.41 2.41 0 0 1 3.4 0Z" fill="none" stroke="currentColor" stroke-width="2" stroke-linecap="round" stroke-linejoin="round"></path><path d="m14.5 12.5 2-2" fill="none" stroke="currentColor" stroke-width="2" stroke-linecap="round" stroke-linejoin="round"></path><path d="m11.5 9.5 2-2" fill="none" stroke="currentColor" stroke-width="2" stroke-linecap="round" stroke-linejoin="round"></path><path d="m8.5 6.5 2-2" fill="none" stroke="currentColor" stroke-width="2" stroke-linecap="round" stroke-linejoin="round"></path><path d="m17.5 15.5 2-2" fill="none" stroke="currentColor" stroke-width="2" stroke-linecap="round" stroke-linejoin="round"></path></symbol>
  <symbol id="icon-ruler-dimension-line-icon" viewBox="0 0 24 24"><path d="M10 15v-3" fill="none" stroke="currentColor" stroke-width="2" stroke-linecap="round" stroke-linejoin="round"></path><path d="M14 15v-3" fill="none" stroke="currentColor" stroke-width="2" stroke-linecap="round" stroke-linejoin="round"></path><path d="M18 15v-3" fill="none" stroke="currentColor" stroke-width="2" stroke-linecap="round" stroke-linejoin="round"></path><path d="M2 8V4" fill="none" stroke="currentColor" stroke-width="2" stroke-linecap="round" stroke-linejoin="round"></path><path d="M22 6H2" fill="none" stroke="currentColor" stroke-width="2" stroke-linecap="round" stroke-linejoin="round"></path><path d="M22 8V4" fill="none" stroke="currentColor" stroke-width="2" stroke-linecap="round" stroke-linejoin="round"></path><path d="M6 15v-3" fill="none" stroke="currentColor" stroke-width="2" stroke-linecap="round" stroke-linejoin="round"></path><path d="M 2 12 h 20 v 8 h -20 Z" fill="none" stroke="currentColor" stroke-width="2" stroke-linecap="round" stroke-linejoin="round"></path></symbol>
  <symbol id="icon-pencil-ruler-icon" viewBox="0 0 24 24"><path d="M13 7 8.7 2.7a2.41 2.41 0 0 0-3.4 0L2.7 5.3a2.41 2.41 0 0 0 0 3.4L7 13" fill="none" stroke="currentColor" stroke-width="2" stroke-linecap="round" stroke-linejoin="round"></path><path d="m8 6 2-2" fill="none" stroke="currentColor" stroke-width="2" stroke-linecap="round" stroke-linejoin="round"></path><path d="m18 16 2-2" fill="none" stroke="currentColor" stroke-width="2" stroke-linecap="round" stroke-linejoin="round"></path><path d="m17 11 4.3 4.3c.94.94.94 2.46 0 3.4l-2.6 2.6c-.94.94-2.46.94-3.4 0L11 17" fill="none" stroke="currentColor" stroke-width="2" stroke-linecap="round" stroke-linejoin="round"></path><path d="M21.174 6.812a1 1 0 0 0-3.986-3.987L3.842 16.174a2 2 0 0 0-.5.83l-1.321 4.352a.5.5 0 0 0 .623.622l4.353-1.32a2 2 0 0 0 .83-.497z" fill="none" stroke="currentColor" stroke-width="2" stroke-linecap="round" stroke-linejoin="round"></path><path d="m15 5 4 4" fill="none" stroke="currentColor" stroke-width="2" stroke-linecap="round" stroke-linejoin="round"></path></symbol>
  <symbol id="icon-building2-icon" viewBox="0 0 24 24"><path d="M10 12h4" fill="none" stroke="currentColor" stroke-width="2" stroke-linecap="round" stroke-linejoin="round"></path><path d="M10 8h4" fill="none" stroke="currentColor" stroke-width="2" stroke-linecap="round" stroke-linejoin="round"></path><path d="M14 21v-3a2 2 0 0 0-4 0v3" fill="none" stroke="currentColor" stroke-width="2" stroke-linecap="round" stroke-linejoin="round"></path><path d="M6 10H4a2 2 0 0 0-2 2v7a2 2 0 0 0 2 2h16a2 2 0 0 0 2-2V9a2 2 0 0 0-2-2h-2" fill="none" stroke="currentColor" stroke-width="2" stroke-linecap="round" stroke-linejoin="round"></path><path d="M6 21V5a2 2 0 0 1 2-2h8a2 2 0 0 1 2 2v16" fill="none" stroke="currentColor" stroke-width="2" stroke-linecap="round" stroke-linejoin="round"></path></symbol>
  <symbol id="icon-building-icon" viewBox="0 0 24 24"><path d="M12 10h.01" fill="none" stroke="currentColor" stroke-width="2" stroke-linecap="round" stroke-linejoin="round"></path><path d="M12 14h.01" fill="none" stroke="currentColor" stroke-width="2" stroke-linecap="round" stroke-linejoin="round"></path><path d="M12 6h.01" fill="none" stroke="currentColor" stroke-width="2" stroke-linecap="round" stroke-linejoin="round"></path><path d="M16 10h.01" fill="none" stroke="currentColor" stroke-width="2" stroke-linecap="round" stroke-linejoin="round"></path><path d="M16 14h.01" fill="none" stroke="currentColor" stroke-width="2" stroke-linecap="round" stroke-linejoin="round"></path><path d="M16 6h.01" fill="none" stroke="currentColor" stroke-width="2" stroke-linecap="round" stroke-linejoin="round"></path><path d="M8 10h.01" fill="none" stroke="currentColor" stroke-width="2" stroke-linecap="round" stroke-linejoin="round"></path><path d="M8 14h.01" fill="none" stroke="currentColor" stroke-width="2" stroke-linecap="round" stroke-linejoin="round"></path><path d="M8 6h.01" fill="none" stroke="currentColor" stroke-width="2" stroke-linecap="round" stroke-linejoin="round"></path><path d="M9 22v-3a1 1 0 0 1 1-1h4a1 1 0 0 1 1 1v3" fill="none" stroke="currentColor" stroke-width="2" stroke-linecap="round" stroke-linejoin="round"></path><path d="M 4 2 h 16 v 20 h -16 Z" fill="none" stroke="currentColor" stroke-width="2" stroke-linecap="round" stroke-linejoin="round"></path></symbol>
  <symbol id="icon-warehouse-icon" viewBox="0 0 24 24"><path d="M18 21V10a1 1 0 0 0-1-1H7a1 1 0 0 0-1 1v11" fill="none" stroke="currentColor" stroke-width="2" stroke-linecap="round" stroke-linejoin="round"></path><path d="M22 19a2 2 0 0 1-2 2H4a2 2 0 0 1-2-2V8a2 2 0 0 1 1.132-1.803l7.95-3.974a2 2 0 0 1 1.837 0l7.948 3.974A2 2 0 0 1 22 8z" fill="none" stroke="currentColor" stroke-width="2" stroke-linecap="round" stroke-linejoin="round"></path><path d="M6 13h12" fill="none" stroke="currentColor" stroke-width="2" stroke-linecap="round" stroke-linejoin="round"></path><path d="M6 17h12" fill="none" stroke="currentColor" stroke-width="2" stroke-linecap="round" stroke-linejoin="round"></path></symbol>
  <symbol id="icon-square-radical-icon" viewBox="0 0 24 24"><path d="M7 12h2l2 5 2-10h4" fill="none" stroke="currentColor" stroke-width="2" stroke-linecap="round" stroke-linejoin="round"></path><path d="M 3 3 h 18 v 18 h -18 Z" fill="none" stroke="currentColor" stroke-width="2" stroke-linecap="round" stroke-linejoin="round"></path></symbol>
  <symbol id="icon-badge-check-icon" viewBox="0 0 24 24"><path d="M3.85 8.62a4 4 0 0 1 4.78-4.77 4 4 0 0 1 6.74 0 4 4 0 0 1 4.78 4.78 4 4 0 0 1 0 6.74 4 4 0 0 1-4.77 4.78 4 4 0 0 1-6.75 0 4 4 0 0 1-4.78-4.77 4 4 0 0 1 0-6.76Z" fill="none" stroke="currentColor" stroke-width="2" stroke-linecap="round" stroke-linejoin="round"></path><path d="m9 12 2 2 4-4" fill="none" stroke="currentColor" stroke-width="2" stroke-linecap="round" stroke-linejoin="round"></path></symbol>
  <symbol id="icon-book-open-check-icon" viewBox="0 0 24 24"><path d="M12 21V7" fill="none" stroke="currentColor" stroke-width="2" stroke-linecap="round" stroke-linejoin="round"></path><path d="m16 12 2 2 4-4" fill="none" stroke="currentColor" stroke-width="2" stroke-linecap="round" stroke-linejoin="round"></path><path d="M22 6V4a1 1 0 0 0-1-1h-5a4 4 0 0 0-4 4 4 4 0 0 0-4-4H3a1 1 0 0 0-1 1v13a1 1 0 0 0 1 1h6a3 3 0 0 1 3 3 3 3 0 0 1 3-3h6a1 1 0 0 0 1-1v-1.3" fill="none" stroke="currentColor" stroke-width="2" stroke-linecap="round" stroke-linejoin="round"></path></symbol>
  <symbol id="icon-new" viewBox="0 0 24 24"><path d="M0 0h24v24H0z" fill="none" stroke="currentColor" stroke-width="2" stroke-linecap="round" stroke-linejoin="round"></path><path d="M5 3v18" fill="none" stroke="currentColor" stroke-width="2" stroke-linecap="round" stroke-linejoin="round"></path><path d="M19 21v-18" fill="none" stroke="currentColor" stroke-width="2" stroke-linecap="round" stroke-linejoin="round"></path><path d="M5 7h14" fill="none" stroke="currentColor" stroke-width="2" stroke-linecap="round" stroke-linejoin="round"></path><path d="M5 15h14" fill="none" stroke="currentColor" stroke-width="2" stroke-linecap="round" stroke-linejoin="round"></path><path d="M8 13v4" fill="none" stroke="currentColor" stroke-width="2" stroke-linecap="round" stroke-linejoin="round"></path><path d="M11 13v4" fill="none" stroke="currentColor" stroke-width="2" stroke-linecap="round" stroke-linejoin="round"></path><path d="M16 13v4" fill="none" stroke="currentColor" stroke-width="2" stroke-linecap="round" stroke-linejoin="round"></path><path d="M14 5v4" fill="none" stroke="currentColor" stroke-width="2" stroke-linecap="round" stroke-linejoin="round"></path><path d="M11 5v4" fill="none" stroke="currentColor" stroke-width="2" stroke-linecap="round" stroke-linejoin="round"></path><path d="M8 5v4" fill="none" stroke="currentColor" stroke-width="2" stroke-linecap="round" stroke-linejoin="round"></path><path d="M3 21h18" fill="none" stroke="currentColor" stroke-width="2" stroke-linecap="round" stroke-linejoin="round"></path></symbol>
  <symbol id="icon-variable" viewBox="0 0 24 24"><path d="M0 0h24v24H0z" fill="none" stroke="currentColor" stroke-width="2" stroke-linecap="round" stroke-linejoin="round"></path><path d="M5 4c-2.5 5 -2.5 10 0 16m14 -16c2.5 5 2.5 10 0 16m-10 -11h1c1 0 1 1 2.016 3.527c.984 2.473 .984 3.473 1.984 3.473h1" fill="none" stroke="currentColor" stroke-width="2" stroke-linecap="round" stroke-linejoin="round"></path><path d="M8 16c1.5 0 3 -2 4 -3.5s2.5 -3.5 4 -3.5" fill="none" stroke="currentColor" stroke-width="2" stroke-linecap="round" stroke-linejoin="round"></path></symbol>
  <symbol id="icon-math" viewBox="0 0 24 24"><path d="M0 0h24v24H0z" fill="none" stroke="currentColor" stroke-width="2" stroke-linecap="round" stroke-linejoin="round"></path><path d="M19 5h-7l-4 14l-3 -6h-2" fill="none" stroke="currentColor" stroke-width="2" stroke-linecap="round" stroke-linejoin="round"></path><path d="M14 13l6 6" fill="none" stroke="currentColor" stroke-width="2" stroke-linecap="round" stroke-linejoin="round"></path><path d="M14 19l6 -6" fill="none" stroke="currentColor" stroke-width="2" stroke-linecap="round" stroke-linejoin="round"></path></symbol>
  <symbol id="icon-ruler90" viewBox="0 0 24 24"><path d="M0 0h24v24H0z" fill="none" stroke="currentColor" stroke-width="2" stroke-linecap="round" stroke-linejoin="round"></path><path d="M5 4h14a1 1 0 0 1 1 1v5a1 1 0 0 1 -1 1h-7a1 1 0 0 0 -1 1v7a1 1 0 0 1 -1 1h-5a1 1 0 0 1 -1 -1v-14a1 1 0 0 1 1 -1" fill="none" stroke="currentColor" stroke-width="2" stroke-linecap="round" stroke-linejoin="round"></path><path d="M4 8l2 0" fill="none" stroke="currentColor" stroke-width="2" stroke-linecap="round" stroke-linejoin="round"></path><path d="M4 12l3 0" fill="none" stroke="currentColor" stroke-width="2" stroke-linecap="round" stroke-linejoin="round"></path><path d="M4 16l2 0" fill="none" stroke="currentColor" stroke-width="2" stroke-linecap="round" stroke-linejoin="round"></path><path d="M8 4l0 2" fill="none" stroke="currentColor" stroke-width="2" stroke-linecap="round" stroke-linejoin="round"></path><path d="M12 4l0 3" fill="none" stroke="currentColor" stroke-width="2" stroke-linecap="round" stroke-linejoin="round"></path><path d="M16 4l0 2" fill="none" stroke="currentColor" stroke-width="2" stroke-linecap="round" stroke-linejoin="round"></path></symbol>
  <symbol id="icon-buildings" viewBox="0 0 24 24"><path d="M0 0h24v24H0z" fill="none" stroke="currentColor" stroke-width="2" stroke-linecap="round" stroke-linejoin="round"></path><path d="M4 21v-15c0 -1 1 -2 2 -2h5c1 0 2 1 2 2v15" fill="none" stroke="currentColor" stroke-width="2" stroke-linecap="round" stroke-linejoin="round"></path><path d="M16 8h2c1 0 2 1 2 2v11" fill="none" stroke="currentColor" stroke-width="2" stroke-linecap="round" stroke-linejoin="round"></path><path d="M3 21h18" fill="none" stroke="currentColor" stroke-width="2" stroke-linecap="round" stroke-linejoin="round"></path><path d="M10 12v.01" fill="none" stroke="currentColor" stroke-width="2" stroke-linecap="round" stroke-linejoin="round"></path><path d="M10 16v.01" fill="none" stroke="currentColor" stroke-width="2" stroke-linecap="round" stroke-linejoin="round"></path><path d="M10 8v.01" fill="none" stroke="currentColor" stroke-width="2" stroke-linecap="round" stroke-linejoin="round"></path><path d="M7 12v.01" fill="none" stroke="currentColor" stroke-width="2" stroke-linecap="round" stroke-linejoin="round"></path><path d="M7 16v.01" fill="none" stroke="currentColor" stroke-width="2" stroke-linecap="round" stroke-linejoin="round"></path><path d="M7 8v.01" fill="none" stroke="currentColor" stroke-width="2" stroke-linecap="round" stroke-linejoin="round"></path><path d="M17 12v.01" fill="none" stroke="currentColor" stroke-width="2" stroke-linecap="round" stroke-linejoin="round"></path><path d="M17 16v.01" fill="none" stroke="currentColor" stroke-width="2" stroke-linecap="round" stroke-linejoin="round"></path></symbol>

</svg>